<mxfile host="app.diagrams.net" modified="2021-08-13T21:13:41.396Z" agent="5.0 (Windows NT 10.0; Win64; x64) AppleWebKit/537.36 (KHTML, like Gecko) Chrome/92.0.4515.131 Safari/537.36" etag="q4NKaoq-j74IbHxiWhr2" version="14.9.5" type="github" pages="7">
  <diagram id="8YX7ex1cYJ3BTZl0VRjm" name="Adapter">
    <mxGraphModel dx="784" dy="319" grid="1" gridSize="10" guides="1" tooltips="1" connect="1" arrows="1" fold="1" page="1" pageScale="1" pageWidth="850" pageHeight="1100" math="0" shadow="0">
      <root>
        <mxCell id="0" />
        <mxCell id="1" parent="0" />
        <mxCell id="HFGuTLxk6eoYrdJF3Nog-1" value="&lt;span style=&quot;font-size: 25px&quot;&gt;&lt;b&gt;Adapter&lt;/b&gt;&lt;/span&gt;" style="text;html=1;strokeColor=none;fillColor=none;align=center;verticalAlign=middle;whiteSpace=wrap;rounded=0;" parent="1" vertex="1">
          <mxGeometry x="330" y="40" width="210" height="20" as="geometry" />
        </mxCell>
        <mxCell id="HFGuTLxk6eoYrdJF3Nog-3" value="&lt;p style=&quot;margin: 0px ; margin-top: 4px ; text-align: center&quot;&gt;&lt;b&gt;HMIFromVGA&lt;/b&gt;&lt;/p&gt;&lt;hr size=&quot;1&quot;&gt;&lt;p style=&quot;margin: 0px ; margin-left: 4px&quot;&gt;+ vgasocket: VGASocket&lt;br&gt;&lt;/p&gt;&lt;hr size=&quot;1&quot;&gt;&lt;p style=&quot;margin: 0px ; margin-left: 4px&quot;&gt;+ decodeData();&lt;/p&gt;" style="verticalAlign=top;align=left;overflow=fill;fontSize=12;fontFamily=Helvetica;html=1;" parent="1" vertex="1">
          <mxGeometry x="370" y="270" width="190" height="85" as="geometry" />
        </mxCell>
        <mxCell id="HFGuTLxk6eoYrdJF3Nog-4" value="&lt;p style=&quot;margin: 0px ; margin-top: 4px ; text-align: center&quot;&gt;&lt;i&gt;&amp;lt;&amp;lt;Interface&amp;gt;&amp;gt;&lt;/i&gt;&lt;br&gt;&lt;b&gt;VideoSocket&lt;/b&gt;&lt;/p&gt;&lt;hr size=&quot;1&quot;&gt;&lt;p style=&quot;margin: 0px ; margin-left: 4px&quot;&gt;+ decodeData();&lt;br&gt;&lt;/p&gt;" style="verticalAlign=top;align=left;overflow=fill;fontSize=12;fontFamily=Helvetica;html=1;" parent="1" vertex="1">
          <mxGeometry x="530" y="110" width="190" height="70" as="geometry" />
        </mxCell>
        <mxCell id="HFGuTLxk6eoYrdJF3Nog-19" value="Relation" style="endArrow=open;endSize=14;startArrow=none;startSize=34;startFill=0;edgeStyle=orthogonalEdgeStyle;noLabel=1;fontColor=none;labelBackgroundColor=none;endFill=0;strokeWidth=1;jumpSize=16;exitX=0.25;exitY=0;exitDx=0;exitDy=0;entryX=0.75;entryY=1;entryDx=0;entryDy=0;dashed=1;" parent="1" source="HFGuTLxk6eoYrdJF3Nog-3" target="HFGuTLxk6eoYrdJF3Nog-20" edge="1">
          <mxGeometry relative="1" as="geometry">
            <mxPoint x="550" y="150" as="sourcePoint" />
            <mxPoint x="500" y="160" as="targetPoint" />
            <Array as="points">
              <mxPoint x="417" y="220" />
              <mxPoint x="363" y="220" />
              <mxPoint x="363" y="170" />
            </Array>
          </mxGeometry>
        </mxCell>
        <mxCell id="HFGuTLxk6eoYrdJF3Nog-20" value="&lt;p style=&quot;margin: 0px ; margin-top: 4px ; text-align: center&quot;&gt;&lt;b&gt;VGA&lt;/b&gt;&lt;/p&gt;&lt;hr size=&quot;1&quot;&gt;&lt;p style=&quot;margin: 0px ; margin-left: 4px&quot;&gt;+ decodeData();&lt;/p&gt;" style="verticalAlign=top;align=left;overflow=fill;fontSize=12;fontFamily=Helvetica;html=1;" parent="1" vertex="1">
          <mxGeometry x="220" y="110" width="190" height="60" as="geometry" />
        </mxCell>
        <mxCell id="oj7OZV2upSbnZ4_s5Lht-1" value="" style="endArrow=block;dashed=1;endFill=0;endSize=12;html=1;entryX=0.5;entryY=1;entryDx=0;entryDy=0;exitX=0.5;exitY=0;exitDx=0;exitDy=0;edgeStyle=orthogonalEdgeStyle;" parent="1" source="HFGuTLxk6eoYrdJF3Nog-3" target="HFGuTLxk6eoYrdJF3Nog-4" edge="1">
          <mxGeometry width="160" relative="1" as="geometry">
            <mxPoint x="554.9999999999998" y="250" as="sourcePoint" />
            <mxPoint x="602.4999999999998" y="190" as="targetPoint" />
          </mxGeometry>
        </mxCell>
        <mxCell id="GSKvhcchLiWGoE6pG0RY-1" value="1" style="endArrow=open;endSize=14;startArrow=diamondThin;startSize=24;startFill=0;edgeStyle=orthogonalEdgeStyle;noLabel=1;fontColor=none;labelBackgroundColor=none;endFill=0;strokeWidth=1;entryX=0.5;entryY=1;entryDx=0;entryDy=0;jumpSize=16;exitX=0;exitY=0.25;exitDx=0;exitDy=0;" edge="1" parent="1" source="HFGuTLxk6eoYrdJF3Nog-3" target="HFGuTLxk6eoYrdJF3Nog-20">
          <mxGeometry relative="1" as="geometry">
            <mxPoint x="230" y="230" as="sourcePoint" />
            <mxPoint x="330" y="260" as="targetPoint" />
          </mxGeometry>
        </mxCell>
        <mxCell id="GSKvhcchLiWGoE6pG0RY-2" value="1" style="edgeLabel;html=1;align=center;verticalAlign=middle;resizable=0;points=[];" vertex="1" connectable="0" parent="GSKvhcchLiWGoE6pG0RY-1">
          <mxGeometry x="0.0177" y="2" relative="1" as="geometry">
            <mxPoint x="7" y="-57" as="offset" />
          </mxGeometry>
        </mxCell>
        <mxCell id="GSKvhcchLiWGoE6pG0RY-4" value="1" style="edgeLabel;html=1;align=center;verticalAlign=middle;resizable=0;points=[];" vertex="1" connectable="0" parent="GSKvhcchLiWGoE6pG0RY-1">
          <mxGeometry x="0.0646" relative="1" as="geometry">
            <mxPoint x="25" y="27" as="offset" />
          </mxGeometry>
        </mxCell>
      </root>
    </mxGraphModel>
  </diagram>
  <diagram id="jtTWM3AcnJ1rhkMabHrK" name="Bridge">
    <mxGraphModel dx="784" dy="319" grid="1" gridSize="10" guides="1" tooltips="1" connect="1" arrows="1" fold="1" page="1" pageScale="1" pageWidth="850" pageHeight="1100" math="0" shadow="0">
      <root>
        <mxCell id="XUkY8rYr9bB18hkdcqKL-0" />
        <mxCell id="XUkY8rYr9bB18hkdcqKL-1" parent="XUkY8rYr9bB18hkdcqKL-0" />
        <mxCell id="RVvrF7YEhhsWXLMm2qhX-1" value="&lt;span style=&quot;font-size: 25px&quot;&gt;&lt;b&gt;Bridge&lt;/b&gt;&lt;/span&gt;" style="text;html=1;strokeColor=none;fillColor=none;align=center;verticalAlign=middle;whiteSpace=wrap;rounded=0;" parent="XUkY8rYr9bB18hkdcqKL-1" vertex="1">
          <mxGeometry x="330" y="40" width="210" height="20" as="geometry" />
        </mxCell>
        <mxCell id="RVvrF7YEhhsWXLMm2qhX-10" value="" style="endArrow=block;dashed=1;endFill=0;endSize=12;html=1;entryX=0.25;entryY=1;entryDx=0;entryDy=0;exitX=0.5;exitY=0;exitDx=0;exitDy=0;edgeStyle=orthogonalEdgeStyle;" parent="XUkY8rYr9bB18hkdcqKL-1" source="RVvrF7YEhhsWXLMm2qhX-31" target="RVvrF7YEhhsWXLMm2qhX-21" edge="1">
          <mxGeometry width="160" relative="1" as="geometry">
            <mxPoint x="555" y="250" as="sourcePoint" />
            <mxPoint x="765" y="52.5" as="targetPoint" />
          </mxGeometry>
        </mxCell>
        <mxCell id="RVvrF7YEhhsWXLMm2qhX-16" value="&lt;p style=&quot;margin: 0px ; margin-top: 4px ; text-align: center&quot;&gt;&lt;b&gt;Scooter&lt;/b&gt;&lt;/p&gt;&lt;hr size=&quot;1&quot;&gt;&lt;p style=&quot;margin: 0px ; margin-left: 4px&quot;&gt;+ maker: Maker&lt;br&gt;&lt;/p&gt;&lt;hr size=&quot;1&quot;&gt;&lt;p style=&quot;margin: 0px ; margin-left: 4px&quot;&gt;+ Scooter(Maker maker);&lt;br&gt;+ toString: String&lt;/p&gt;" style="verticalAlign=top;align=left;overflow=fill;fontSize=12;fontFamily=Helvetica;html=1;" parent="XUkY8rYr9bB18hkdcqKL-1" vertex="1">
          <mxGeometry x="135" y="105" width="190" height="100" as="geometry" />
        </mxCell>
        <mxCell id="RVvrF7YEhhsWXLMm2qhX-21" value="&lt;p style=&quot;margin: 0px ; margin-top: 4px ; text-align: center&quot;&gt;&lt;i&gt;&amp;lt;&amp;lt;Interface&amp;gt;&amp;gt;&lt;/i&gt;&lt;br&gt;&lt;b&gt;Maker&lt;/b&gt;&lt;/p&gt;&lt;hr size=&quot;1&quot;&gt;&lt;p style=&quot;margin: 0px ; margin-left: 4px&quot;&gt;+ getMaker()&lt;br&gt;&lt;/p&gt;" style="verticalAlign=top;align=left;overflow=fill;fontSize=12;fontFamily=Helvetica;html=1;" parent="XUkY8rYr9bB18hkdcqKL-1" vertex="1">
          <mxGeometry x="555" y="120" width="190" height="70" as="geometry" />
        </mxCell>
        <mxCell id="RVvrF7YEhhsWXLMm2qhX-26" value="Honda" style="swimlane;fontStyle=1;align=center;verticalAlign=top;childLayout=stackLayout;horizontal=1;startSize=26;horizontalStack=0;resizeParent=1;resizeParentMax=0;resizeLast=0;collapsible=1;marginBottom=0;" parent="XUkY8rYr9bB18hkdcqKL-1" vertex="1">
          <mxGeometry x="665" y="250" width="160" height="52" as="geometry" />
        </mxCell>
        <mxCell id="RVvrF7YEhhsWXLMm2qhX-27" value="+ getMaker()" style="text;strokeColor=none;fillColor=none;align=left;verticalAlign=top;spacingLeft=4;spacingRight=4;overflow=hidden;rotatable=0;points=[[0,0.5],[1,0.5]];portConstraint=eastwest;" parent="RVvrF7YEhhsWXLMm2qhX-26" vertex="1">
          <mxGeometry y="26" width="160" height="26" as="geometry" />
        </mxCell>
        <mxCell id="RVvrF7YEhhsWXLMm2qhX-30" value="" style="endArrow=block;dashed=1;endFill=0;endSize=12;html=1;entryX=0.75;entryY=1;entryDx=0;entryDy=0;exitX=0.5;exitY=0;exitDx=0;exitDy=0;edgeStyle=orthogonalEdgeStyle;" parent="XUkY8rYr9bB18hkdcqKL-1" source="RVvrF7YEhhsWXLMm2qhX-26" target="RVvrF7YEhhsWXLMm2qhX-21" edge="1">
          <mxGeometry width="160" relative="1" as="geometry">
            <mxPoint x="565" y="260" as="sourcePoint" />
            <mxPoint x="612.5" y="200" as="targetPoint" />
          </mxGeometry>
        </mxCell>
        <mxCell id="RVvrF7YEhhsWXLMm2qhX-31" value="Honda" style="swimlane;fontStyle=1;align=center;verticalAlign=top;childLayout=stackLayout;horizontal=1;startSize=26;horizontalStack=0;resizeParent=1;resizeParentMax=0;resizeLast=0;collapsible=1;marginBottom=0;" parent="XUkY8rYr9bB18hkdcqKL-1" vertex="1">
          <mxGeometry x="475" y="250" width="160" height="52" as="geometry" />
        </mxCell>
        <mxCell id="RVvrF7YEhhsWXLMm2qhX-32" value="+ getMaker()" style="text;strokeColor=none;fillColor=none;align=left;verticalAlign=top;spacingLeft=4;spacingRight=4;overflow=hidden;rotatable=0;points=[[0,0.5],[1,0.5]];portConstraint=eastwest;" parent="RVvrF7YEhhsWXLMm2qhX-31" vertex="1">
          <mxGeometry y="26" width="160" height="26" as="geometry" />
        </mxCell>
        <mxCell id="RVvrF7YEhhsWXLMm2qhX-34" value="Relation" style="endArrow=open;endSize=14;startArrow=diamondThin;startSize=24;startFill=0;edgeStyle=orthogonalEdgeStyle;noLabel=1;fontColor=none;labelBackgroundColor=none;endFill=0;strokeWidth=1;entryX=0;entryY=0.5;entryDx=0;entryDy=0;exitX=1;exitY=0.5;exitDx=0;exitDy=0;jumpSize=16;" parent="XUkY8rYr9bB18hkdcqKL-1" source="RVvrF7YEhhsWXLMm2qhX-16" target="RVvrF7YEhhsWXLMm2qhX-21" edge="1">
          <mxGeometry relative="1" as="geometry">
            <mxPoint x="315" y="150" as="sourcePoint" />
            <mxPoint x="475" y="150" as="targetPoint" />
          </mxGeometry>
        </mxCell>
        <mxCell id="PsUM8DL9BI1PJQeVQCRd-0" value="1" style="edgeLabel;html=1;align=center;verticalAlign=middle;resizable=0;points=[];" vertex="1" connectable="0" parent="RVvrF7YEhhsWXLMm2qhX-34">
          <mxGeometry x="-0.1333" y="2" relative="1" as="geometry">
            <mxPoint x="-55" y="17" as="offset" />
          </mxGeometry>
        </mxCell>
        <mxCell id="PsUM8DL9BI1PJQeVQCRd-1" value="1" style="edgeLabel;html=1;align=center;verticalAlign=middle;resizable=0;points=[];" vertex="1" connectable="0" parent="RVvrF7YEhhsWXLMm2qhX-34">
          <mxGeometry x="0.2754" y="-4" relative="1" as="geometry">
            <mxPoint x="48" y="11" as="offset" />
          </mxGeometry>
        </mxCell>
        <mxCell id="RVvrF7YEhhsWXLMm2qhX-39" value="" style="endArrow=block;endFill=0;endSize=12;html=1;entryX=0.25;entryY=1;entryDx=0;entryDy=0;exitX=0.5;exitY=0;exitDx=0;exitDy=0;edgeStyle=orthogonalEdgeStyle;" parent="XUkY8rYr9bB18hkdcqKL-1" source="RVvrF7YEhhsWXLMm2qhX-43" target="RVvrF7YEhhsWXLMm2qhX-16" edge="1">
          <mxGeometry width="160" relative="1" as="geometry">
            <mxPoint x="115" y="290" as="sourcePoint" />
            <mxPoint x="162.5" y="230" as="targetPoint" />
          </mxGeometry>
        </mxCell>
        <mxCell id="RVvrF7YEhhsWXLMm2qhX-42" value="" style="endArrow=block;endFill=0;endSize=12;html=1;entryX=0.75;entryY=1;entryDx=0;entryDy=0;exitX=0.5;exitY=0;exitDx=0;exitDy=0;edgeStyle=orthogonalEdgeStyle;" parent="XUkY8rYr9bB18hkdcqKL-1" source="RVvrF7YEhhsWXLMm2qhX-45" target="RVvrF7YEhhsWXLMm2qhX-16" edge="1">
          <mxGeometry width="160" relative="1" as="geometry">
            <mxPoint x="375" y="250" as="sourcePoint" />
            <mxPoint x="257.5" y="230" as="targetPoint" />
          </mxGeometry>
        </mxCell>
        <mxCell id="RVvrF7YEhhsWXLMm2qhX-43" value="MechanicalScooter" style="swimlane;fontStyle=1;align=center;verticalAlign=top;childLayout=stackLayout;horizontal=1;startSize=26;horizontalStack=0;resizeParent=1;resizeParentMax=0;resizeLast=0;collapsible=1;marginBottom=0;" parent="XUkY8rYr9bB18hkdcqKL-1" vertex="1">
          <mxGeometry x="45" y="250" width="200" height="60" as="geometry" />
        </mxCell>
        <mxCell id="RVvrF7YEhhsWXLMm2qhX-44" value="+ MechanicalScooter(Maker maker)" style="text;strokeColor=none;fillColor=none;align=left;verticalAlign=top;spacingLeft=4;spacingRight=4;overflow=hidden;rotatable=0;points=[[0,0.5],[1,0.5]];portConstraint=eastwest;" parent="RVvrF7YEhhsWXLMm2qhX-43" vertex="1">
          <mxGeometry y="26" width="200" height="34" as="geometry" />
        </mxCell>
        <mxCell id="RVvrF7YEhhsWXLMm2qhX-45" value="MechanicalScooter" style="swimlane;fontStyle=1;align=center;verticalAlign=top;childLayout=stackLayout;horizontal=1;startSize=26;horizontalStack=0;resizeParent=1;resizeParentMax=0;resizeLast=0;collapsible=1;marginBottom=0;" parent="XUkY8rYr9bB18hkdcqKL-1" vertex="1">
          <mxGeometry x="255" y="250" width="200" height="60" as="geometry" />
        </mxCell>
        <mxCell id="RVvrF7YEhhsWXLMm2qhX-46" value="+ MechanicalScooter(Maker maker)" style="text;strokeColor=none;fillColor=none;align=left;verticalAlign=top;spacingLeft=4;spacingRight=4;overflow=hidden;rotatable=0;points=[[0,0.5],[1,0.5]];portConstraint=eastwest;" parent="RVvrF7YEhhsWXLMm2qhX-45" vertex="1">
          <mxGeometry y="26" width="200" height="34" as="geometry" />
        </mxCell>
      </root>
    </mxGraphModel>
  </diagram>
  <diagram id="cvn22CjURkZ9AD5-zfp6" name="Composite">
    <mxGraphModel dx="807" dy="328" grid="1" gridSize="10" guides="1" tooltips="1" connect="1" arrows="1" fold="1" page="1" pageScale="1" pageWidth="850" pageHeight="1100" math="0" shadow="0">
      <root>
        <mxCell id="MirDKUyYJ5U1KwB4jFVY-0" />
        <mxCell id="MirDKUyYJ5U1KwB4jFVY-1" parent="MirDKUyYJ5U1KwB4jFVY-0" />
        <mxCell id="kYtbxZ914dotP7J9B3hP-0" value="&lt;span style=&quot;font-size: 25px&quot;&gt;&lt;b&gt;Composite&lt;/b&gt;&lt;/span&gt;" style="text;html=1;strokeColor=none;fillColor=none;align=center;verticalAlign=middle;whiteSpace=wrap;rounded=0;" vertex="1" parent="MirDKUyYJ5U1KwB4jFVY-1">
          <mxGeometry x="330" y="40" width="210" height="20" as="geometry" />
        </mxCell>
        <mxCell id="kYtbxZ914dotP7J9B3hP-1" value="" style="endArrow=block;dashed=1;endFill=0;endSize=12;html=1;entryX=0.75;entryY=1;entryDx=0;entryDy=0;exitX=0.5;exitY=0;exitDx=0;exitDy=0;edgeStyle=orthogonalEdgeStyle;" edge="1" parent="MirDKUyYJ5U1KwB4jFVY-1" source="kYtbxZ914dotP7J9B3hP-7" target="kYtbxZ914dotP7J9B3hP-3">
          <mxGeometry width="160" relative="1" as="geometry">
            <mxPoint x="425" y="290" as="sourcePoint" />
            <mxPoint x="635" y="92.5" as="targetPoint" />
          </mxGeometry>
        </mxCell>
        <mxCell id="kYtbxZ914dotP7J9B3hP-2" value="&lt;p style=&quot;margin: 0px ; margin-top: 4px ; text-align: center&quot;&gt;&lt;b&gt;Composite&lt;/b&gt;&lt;/p&gt;&lt;hr size=&quot;1&quot;&gt;&lt;p style=&quot;margin: 0px ; margin-left: 4px&quot;&gt;+ components: List&amp;lt;Vehicle&amp;gt;&lt;br&gt;&lt;/p&gt;&lt;hr size=&quot;1&quot;&gt;&lt;p style=&quot;margin: 0px ; margin-left: 4px&quot;&gt;+ addComponent(Vehicle);&lt;br&gt;+ removeComponent(Vehicle);&lt;br&gt;&lt;/p&gt;&lt;p style=&quot;margin: 0px ; margin-left: 4px&quot;&gt;+ vehicleType(): String&lt;br&gt;&lt;/p&gt;" style="verticalAlign=top;align=left;overflow=fill;fontSize=12;fontFamily=Helvetica;html=1;" vertex="1" parent="MirDKUyYJ5U1KwB4jFVY-1">
          <mxGeometry x="20" y="250" width="190" height="100" as="geometry" />
        </mxCell>
        <mxCell id="kYtbxZ914dotP7J9B3hP-3" value="&lt;p style=&quot;margin: 0px ; margin-top: 4px ; text-align: center&quot;&gt;&lt;i&gt;&amp;lt;&amp;lt;Interface&amp;gt;&amp;gt;&lt;/i&gt;&lt;br&gt;&lt;b&gt;Vehicle&lt;/b&gt;&lt;/p&gt;&lt;hr size=&quot;1&quot;&gt;&lt;p style=&quot;margin: 0px ; margin-left: 4px&quot;&gt;+ vehicleType(): String&lt;br&gt;&lt;/p&gt;" style="verticalAlign=top;align=left;overflow=fill;fontSize=12;fontFamily=Helvetica;html=1;" vertex="1" parent="MirDKUyYJ5U1KwB4jFVY-1">
          <mxGeometry x="330" y="80" width="190" height="70" as="geometry" />
        </mxCell>
        <mxCell id="kYtbxZ914dotP7J9B3hP-4" value="Bicycle" style="swimlane;fontStyle=1;align=center;verticalAlign=top;childLayout=stackLayout;horizontal=1;startSize=26;horizontalStack=0;resizeParent=1;resizeParentMax=0;resizeLast=0;collapsible=1;marginBottom=0;" vertex="1" parent="MirDKUyYJ5U1KwB4jFVY-1">
          <mxGeometry x="500" y="290" width="160" height="52" as="geometry" />
        </mxCell>
        <mxCell id="kYtbxZ914dotP7J9B3hP-5" value="+ vehicleType(): String" style="text;strokeColor=none;fillColor=none;align=left;verticalAlign=top;spacingLeft=4;spacingRight=4;overflow=hidden;rotatable=0;points=[[0,0.5],[1,0.5]];portConstraint=eastwest;" vertex="1" parent="kYtbxZ914dotP7J9B3hP-4">
          <mxGeometry y="26" width="160" height="26" as="geometry" />
        </mxCell>
        <mxCell id="kYtbxZ914dotP7J9B3hP-6" value="" style="endArrow=block;dashed=1;endFill=0;endSize=12;html=1;entryX=0.75;entryY=1;entryDx=0;entryDy=0;exitX=0.5;exitY=0;exitDx=0;exitDy=0;edgeStyle=orthogonalEdgeStyle;" edge="1" parent="MirDKUyYJ5U1KwB4jFVY-1" source="kYtbxZ914dotP7J9B3hP-4" target="kYtbxZ914dotP7J9B3hP-3">
          <mxGeometry width="160" relative="1" as="geometry">
            <mxPoint x="435" y="300" as="sourcePoint" />
            <mxPoint x="482.5" y="240" as="targetPoint" />
          </mxGeometry>
        </mxCell>
        <mxCell id="kYtbxZ914dotP7J9B3hP-7" value="Scooter" style="swimlane;fontStyle=1;align=center;verticalAlign=top;childLayout=stackLayout;horizontal=1;startSize=26;horizontalStack=0;resizeParent=1;resizeParentMax=0;resizeLast=0;collapsible=1;marginBottom=0;" vertex="1" parent="MirDKUyYJ5U1KwB4jFVY-1">
          <mxGeometry x="330" y="290" width="160" height="52" as="geometry" />
        </mxCell>
        <mxCell id="kYtbxZ914dotP7J9B3hP-8" value="+ vehicleType(): String" style="text;strokeColor=none;fillColor=none;align=left;verticalAlign=top;spacingLeft=4;spacingRight=4;overflow=hidden;rotatable=0;points=[[0,0.5],[1,0.5]];portConstraint=eastwest;" vertex="1" parent="kYtbxZ914dotP7J9B3hP-7">
          <mxGeometry y="26" width="160" height="26" as="geometry" />
        </mxCell>
        <mxCell id="kYtbxZ914dotP7J9B3hP-9" value="Relation" style="endArrow=open;endSize=14;startArrow=diamondThin;startSize=24;startFill=0;edgeStyle=orthogonalEdgeStyle;noLabel=1;fontColor=none;labelBackgroundColor=none;endFill=0;strokeWidth=1;entryX=0.25;entryY=1;entryDx=0;entryDy=0;exitX=0.75;exitY=0;exitDx=0;exitDy=0;jumpSize=16;" edge="1" parent="MirDKUyYJ5U1KwB4jFVY-1" source="kYtbxZ914dotP7J9B3hP-2" target="kYtbxZ914dotP7J9B3hP-3">
          <mxGeometry relative="1" as="geometry">
            <mxPoint x="185" y="190" as="sourcePoint" />
            <mxPoint x="345" y="190" as="targetPoint" />
            <Array as="points">
              <mxPoint x="163" y="210" />
              <mxPoint x="378" y="210" />
            </Array>
          </mxGeometry>
        </mxCell>
        <mxCell id="kYtbxZ914dotP7J9B3hP-10" value="1" style="edgeLabel;html=1;align=center;verticalAlign=middle;resizable=0;points=[];" vertex="1" connectable="0" parent="kYtbxZ914dotP7J9B3hP-9">
          <mxGeometry x="-0.1333" y="2" relative="1" as="geometry">
            <mxPoint x="-55" y="17" as="offset" />
          </mxGeometry>
        </mxCell>
        <mxCell id="kYtbxZ914dotP7J9B3hP-11" value="*" style="edgeLabel;html=1;align=center;verticalAlign=middle;resizable=0;points=[];" vertex="1" connectable="0" parent="kYtbxZ914dotP7J9B3hP-9">
          <mxGeometry x="0.2754" y="-4" relative="1" as="geometry">
            <mxPoint x="48" y="11" as="offset" />
          </mxGeometry>
        </mxCell>
        <mxCell id="kYtbxZ914dotP7J9B3hP-13" value="" style="endArrow=block;endFill=0;endSize=12;html=1;entryX=0.75;entryY=1;entryDx=0;entryDy=0;edgeStyle=orthogonalEdgeStyle;dashed=1;exitX=1;exitY=0.5;exitDx=0;exitDy=0;" edge="1" parent="MirDKUyYJ5U1KwB4jFVY-1" source="kYtbxZ914dotP7J9B3hP-2" target="kYtbxZ914dotP7J9B3hP-3">
          <mxGeometry width="160" relative="1" as="geometry">
            <mxPoint x="270" y="390" as="sourcePoint" />
            <mxPoint x="127.5" y="270" as="targetPoint" />
            <Array as="points">
              <mxPoint x="260" y="300" />
              <mxPoint x="260" y="260" />
              <mxPoint x="410" y="260" />
              <mxPoint x="410" y="220" />
              <mxPoint x="473" y="220" />
            </Array>
          </mxGeometry>
        </mxCell>
        <mxCell id="kYtbxZ914dotP7J9B3hP-18" value="Bicycle" style="swimlane;fontStyle=1;align=center;verticalAlign=top;childLayout=stackLayout;horizontal=1;startSize=26;horizontalStack=0;resizeParent=1;resizeParentMax=0;resizeLast=0;collapsible=1;marginBottom=0;" vertex="1" parent="MirDKUyYJ5U1KwB4jFVY-1">
          <mxGeometry x="670" y="290" width="160" height="52" as="geometry" />
        </mxCell>
        <mxCell id="kYtbxZ914dotP7J9B3hP-19" value="+ vehicleType(): String" style="text;strokeColor=none;fillColor=none;align=left;verticalAlign=top;spacingLeft=4;spacingRight=4;overflow=hidden;rotatable=0;points=[[0,0.5],[1,0.5]];portConstraint=eastwest;" vertex="1" parent="kYtbxZ914dotP7J9B3hP-18">
          <mxGeometry y="26" width="160" height="26" as="geometry" />
        </mxCell>
        <mxCell id="kYtbxZ914dotP7J9B3hP-20" value="" style="endArrow=block;dashed=1;endFill=0;endSize=12;html=1;entryX=0.75;entryY=1;entryDx=0;entryDy=0;exitX=0.5;exitY=0;exitDx=0;exitDy=0;edgeStyle=orthogonalEdgeStyle;" edge="1" parent="MirDKUyYJ5U1KwB4jFVY-1" source="kYtbxZ914dotP7J9B3hP-18" target="kYtbxZ914dotP7J9B3hP-3">
          <mxGeometry width="160" relative="1" as="geometry">
            <mxPoint x="620" y="300" as="sourcePoint" />
            <mxPoint x="752.5" y="230" as="targetPoint" />
          </mxGeometry>
        </mxCell>
      </root>
    </mxGraphModel>
  </diagram>
  <diagram id="co7SX2xwVrrmSwuZ9ILK" name="Decorator">
    <mxGraphModel dx="1025" dy="417" grid="1" gridSize="10" guides="1" tooltips="1" connect="1" arrows="1" fold="1" page="1" pageScale="1" pageWidth="850" pageHeight="1100" math="0" shadow="0">
      <root>
        <mxCell id="fH0vnshnI7YTDiZn9Ibd-0" />
        <mxCell id="fH0vnshnI7YTDiZn9Ibd-1" parent="fH0vnshnI7YTDiZn9Ibd-0" />
        <mxCell id="_fps5aGFKw3M-L5aXmAW-0" value="&lt;span style=&quot;font-size: 25px&quot;&gt;&lt;b&gt;Decorator&lt;/b&gt;&lt;/span&gt;" style="text;html=1;strokeColor=none;fillColor=none;align=center;verticalAlign=middle;whiteSpace=wrap;rounded=0;" vertex="1" parent="fH0vnshnI7YTDiZn9Ibd-1">
          <mxGeometry x="330" y="40" width="210" height="20" as="geometry" />
        </mxCell>
        <mxCell id="_fps5aGFKw3M-L5aXmAW-2" value="&lt;p style=&quot;margin: 0px ; margin-top: 4px ; text-align: center&quot;&gt;&lt;b&gt;Decorator&lt;/b&gt;&lt;/p&gt;&lt;hr size=&quot;1&quot;&gt;&lt;p style=&quot;margin: 0px ; margin-left: 4px&quot;&gt;+ scooter: Scooter&lt;br&gt;&lt;/p&gt;&lt;hr size=&quot;1&quot;&gt;&lt;p style=&quot;margin: 0px ; margin-left: 4px&quot;&gt;+ Decorator(Scooter)&lt;/p&gt;&lt;p style=&quot;margin: 0px ; margin-left: 4px&quot;&gt;+ status();&lt;br&gt;&lt;/p&gt;" style="verticalAlign=top;align=left;overflow=fill;fontSize=12;fontFamily=Helvetica;html=1;" vertex="1" parent="fH0vnshnI7YTDiZn9Ibd-1">
          <mxGeometry x="176.5" y="242" width="190" height="88" as="geometry" />
        </mxCell>
        <mxCell id="_fps5aGFKw3M-L5aXmAW-3" value="&lt;p style=&quot;margin: 0px ; margin-top: 4px ; text-align: center&quot;&gt;&lt;i&gt;&amp;lt;&amp;lt;Interface&amp;gt;&amp;gt;&lt;/i&gt;&lt;br&gt;&lt;b&gt;Scooter&lt;/b&gt;&lt;/p&gt;&lt;hr size=&quot;1&quot;&gt;&lt;p style=&quot;margin: 0px ; margin-left: 4px&quot;&gt;+ status(): void&lt;br&gt;&lt;/p&gt;" style="verticalAlign=top;align=left;overflow=fill;fontSize=12;fontFamily=Helvetica;html=1;" vertex="1" parent="fH0vnshnI7YTDiZn9Ibd-1">
          <mxGeometry x="456.5" y="80" width="190" height="70" as="geometry" />
        </mxCell>
        <mxCell id="_fps5aGFKw3M-L5aXmAW-9" value="Relation" style="endArrow=open;endSize=14;startArrow=diamondThin;startSize=24;startFill=0;edgeStyle=orthogonalEdgeStyle;noLabel=1;fontColor=none;labelBackgroundColor=none;endFill=0;strokeWidth=1;entryX=0.25;entryY=1;entryDx=0;entryDy=0;exitX=0.75;exitY=0;exitDx=0;exitDy=0;jumpSize=16;" edge="1" parent="fH0vnshnI7YTDiZn9Ibd-1" source="_fps5aGFKw3M-L5aXmAW-2" target="_fps5aGFKw3M-L5aXmAW-3">
          <mxGeometry relative="1" as="geometry">
            <mxPoint x="311.5" y="190" as="sourcePoint" />
            <mxPoint x="471.5" y="190" as="targetPoint" />
            <Array as="points">
              <mxPoint x="319.5" y="190" />
              <mxPoint x="504.5" y="190" />
            </Array>
          </mxGeometry>
        </mxCell>
        <mxCell id="_fps5aGFKw3M-L5aXmAW-10" value="1" style="edgeLabel;html=1;align=center;verticalAlign=middle;resizable=0;points=[];" vertex="1" connectable="0" parent="_fps5aGFKw3M-L5aXmAW-9">
          <mxGeometry x="-0.1333" y="2" relative="1" as="geometry">
            <mxPoint x="-55" y="17" as="offset" />
          </mxGeometry>
        </mxCell>
        <mxCell id="brh1DsurPFpewGTn-f0A-6" value="1" style="edgeLabel;html=1;align=center;verticalAlign=middle;resizable=0;points=[];" vertex="1" connectable="0" parent="_fps5aGFKw3M-L5aXmAW-9">
          <mxGeometry x="0.5921" y="-2" relative="1" as="geometry">
            <mxPoint x="19" as="offset" />
          </mxGeometry>
        </mxCell>
        <mxCell id="_fps5aGFKw3M-L5aXmAW-12" value="" style="endArrow=block;endFill=0;endSize=12;html=1;entryX=0.75;entryY=1;entryDx=0;entryDy=0;edgeStyle=orthogonalEdgeStyle;dashed=1;exitX=1;exitY=0.5;exitDx=0;exitDy=0;" edge="1" parent="fH0vnshnI7YTDiZn9Ibd-1" source="_fps5aGFKw3M-L5aXmAW-2" target="_fps5aGFKw3M-L5aXmAW-3">
          <mxGeometry width="160" relative="1" as="geometry">
            <mxPoint x="396.5" y="390" as="sourcePoint" />
            <mxPoint x="254" y="270" as="targetPoint" />
            <Array as="points">
              <mxPoint x="367" y="290" />
              <mxPoint x="600" y="290" />
              <mxPoint x="600" y="220" />
              <mxPoint x="599" y="220" />
            </Array>
          </mxGeometry>
        </mxCell>
        <mxCell id="_fps5aGFKw3M-L5aXmAW-15" value="" style="endArrow=block;dashed=1;endFill=0;endSize=12;html=1;exitX=0.5;exitY=0;exitDx=0;exitDy=0;edgeStyle=orthogonalEdgeStyle;entryX=0.75;entryY=1;entryDx=0;entryDy=0;" edge="1" parent="fH0vnshnI7YTDiZn9Ibd-1" source="brh1DsurPFpewGTn-f0A-5" target="_fps5aGFKw3M-L5aXmAW-3">
          <mxGeometry width="160" relative="1" as="geometry">
            <mxPoint x="596.5" y="280" as="sourcePoint" />
            <mxPoint x="626.5" y="230" as="targetPoint" />
          </mxGeometry>
        </mxCell>
        <mxCell id="brh1DsurPFpewGTn-f0A-1" value="CheckingDecorator" style="swimlane;fontStyle=1;align=center;verticalAlign=top;childLayout=stackLayout;horizontal=1;startSize=26;horizontalStack=0;resizeParent=1;resizeParentMax=0;resizeLast=0;collapsible=1;marginBottom=0;" vertex="1" parent="fH0vnshnI7YTDiZn9Ibd-1">
          <mxGeometry x="191.5" y="390" width="160" height="52" as="geometry" />
        </mxCell>
        <mxCell id="brh1DsurPFpewGTn-f0A-2" value="+ status();" style="text;strokeColor=none;fillColor=none;align=left;verticalAlign=top;spacingLeft=4;spacingRight=4;overflow=hidden;rotatable=0;points=[[0,0.5],[1,0.5]];portConstraint=eastwest;" vertex="1" parent="brh1DsurPFpewGTn-f0A-1">
          <mxGeometry y="26" width="160" height="26" as="geometry" />
        </mxCell>
        <mxCell id="brh1DsurPFpewGTn-f0A-3" value="" style="endArrow=block;endFill=0;endSize=12;html=1;entryX=0.5;entryY=1;entryDx=0;entryDy=0;edgeStyle=orthogonalEdgeStyle;exitX=0.5;exitY=0;exitDx=0;exitDy=0;" edge="1" parent="fH0vnshnI7YTDiZn9Ibd-1" source="brh1DsurPFpewGTn-f0A-1" target="_fps5aGFKw3M-L5aXmAW-2">
          <mxGeometry width="160" relative="1" as="geometry">
            <mxPoint x="271.5" y="370" as="sourcePoint" />
            <mxPoint x="397.75" y="342" as="targetPoint" />
          </mxGeometry>
        </mxCell>
        <mxCell id="brh1DsurPFpewGTn-f0A-5" value="&lt;p style=&quot;margin: 0px ; margin-top: 4px ; text-align: center&quot;&gt;&lt;b&gt;ScooterImpl&lt;/b&gt;&lt;/p&gt;&lt;hr size=&quot;1&quot;&gt;&lt;p style=&quot;margin: 0px ; margin-left: 4px&quot;&gt;+ brand: String&lt;br&gt;&lt;/p&gt;&lt;p style=&quot;margin: 0px ; margin-left: 4px&quot;&gt;+ manufactured: Integer&lt;/p&gt;&lt;hr size=&quot;1&quot;&gt;&lt;p style=&quot;margin: 0px ; margin-left: 4px&quot;&gt;&lt;span&gt;+ status();&lt;/span&gt;&lt;br&gt;&lt;/p&gt;" style="verticalAlign=top;align=left;overflow=fill;fontSize=12;fontFamily=Helvetica;html=1;" vertex="1" parent="fH0vnshnI7YTDiZn9Ibd-1">
          <mxGeometry x="503.5" y="310" width="190" height="88" as="geometry" />
        </mxCell>
      </root>
    </mxGraphModel>
  </diagram>
  <diagram id="ck8zvJZh2pi3s7CdpznM" name="Facade">
    <mxGraphModel dx="1332" dy="542" grid="1" gridSize="10" guides="1" tooltips="1" connect="1" arrows="1" fold="1" page="1" pageScale="1" pageWidth="850" pageHeight="1100" math="0" shadow="0">
      <root>
        <mxCell id="WVzldCEjprewXI6cb8Rf-0" />
        <mxCell id="WVzldCEjprewXI6cb8Rf-1" parent="WVzldCEjprewXI6cb8Rf-0" />
        <mxCell id="SVJxbusdd9f13FjdAsas-0" value="&lt;span style=&quot;font-size: 25px&quot;&gt;&lt;b&gt;Decorator&lt;/b&gt;&lt;/span&gt;" style="text;html=1;strokeColor=none;fillColor=none;align=center;verticalAlign=middle;whiteSpace=wrap;rounded=0;" vertex="1" parent="WVzldCEjprewXI6cb8Rf-1">
          <mxGeometry x="330" y="40" width="210" height="20" as="geometry" />
        </mxCell>
        <mxCell id="SVJxbusdd9f13FjdAsas-1" value="&lt;p style=&quot;margin: 0px ; margin-top: 4px ; text-align: center&quot;&gt;&lt;b&gt;BatteryPack&lt;/b&gt;&lt;/p&gt;&lt;hr size=&quot;1&quot;&gt;&lt;p style=&quot;margin: 0px ; margin-left: 4px&quot;&gt;+ batteryPowerLevel: int&lt;br&gt;&lt;/p&gt;&lt;hr size=&quot;1&quot;&gt;&lt;p style=&quot;margin: 0px ; margin-left: 4px&quot;&gt;+ BatteryPack();&lt;/p&gt;&lt;p style=&quot;margin: 0px ; margin-left: 4px&quot;&gt;+ charge();&lt;br&gt;&lt;/p&gt;&lt;p style=&quot;margin: 0px ; margin-left: 4px&quot;&gt;+ isBatteryPowerLevelOk(): boolean&lt;/p&gt;" style="verticalAlign=top;align=left;overflow=fill;fontSize=12;fontFamily=Helvetica;html=1;" vertex="1" parent="WVzldCEjprewXI6cb8Rf-1">
          <mxGeometry x="60" y="180" width="210" height="130" as="geometry" />
        </mxCell>
        <mxCell id="SVJxbusdd9f13FjdAsas-11" value="&lt;p style=&quot;margin: 0px ; margin-top: 4px ; text-align: center&quot;&gt;&lt;b&gt;ScooterFacade&lt;/b&gt;&lt;/p&gt;&lt;hr size=&quot;1&quot;&gt;&lt;p style=&quot;margin: 0px ; margin-left: 4px&quot;&gt;+ gps: GPS&lt;br&gt;&lt;/p&gt;&lt;p style=&quot;margin: 0px ; margin-left: 4px&quot;&gt;+ payment: Payment&lt;/p&gt;&lt;p style=&quot;margin: 0px ; margin-left: 4px&quot;&gt;+ batteryPack: BatteryPack&lt;/p&gt;&lt;hr size=&quot;1&quot;&gt;&lt;p style=&quot;margin: 0px ; margin-left: 4px&quot;&gt;&lt;span&gt;+ unlock();&lt;/span&gt;&lt;br&gt;&lt;/p&gt;" style="verticalAlign=top;align=left;overflow=fill;fontSize=12;fontFamily=Helvetica;html=1;" vertex="1" parent="WVzldCEjprewXI6cb8Rf-1">
          <mxGeometry x="280" y="360" width="190" height="110" as="geometry" />
        </mxCell>
        <mxCell id="SVJxbusdd9f13FjdAsas-12" value="" style="shape=image;verticalLabelPosition=bottom;labelBackgroundColor=#ffffff;verticalAlign=top;aspect=fixed;imageAspect=0;image=data:image/png,iVBORw0KGgoAAAANSUhEUgAAAsQAAAIBCAYAAABOcKmEAAAgAElEQVR4Aey9a7sdxXXvm89yXh2DYYfHxLCXpKWlJclEASQiJBEMwULg2MIG2bG4xSgYAstnB+3A8gUZZOyA7LDEMbHOzo7w3t5vl79WnWdUzzF7dHX1nD3n7Orb/L2YT9/q1qP+o+o3q6ur/+zOO+90/LABGkADaAANoAE0gAbQwLpq4M/W9ca5b5weDaABNIAG0AAaQANoQDQAEDNCzhMCNIAG0AAaQANoAA2stQYAYhxgrR2AkQFGBtAAGkADaAANoAGAGCAGiNEAGkADaAANoAE0sNYaAIhxgLV2AEYFGBVAA2gADaABNIAGAGKAGCBGA2gADaABNIAG0MBaawAgxgHW2gEYFWBUAA2gATSABtAAGgCIAWKAGA2gATSABiIaeOWVVxw/bIAGutFA239SAOJII9h2JZAf/0zRABpAA/3TgIDQwYMH+WEDNNCyBsT32m4TAWKAuHXRtS1y8usfaFAn1MkQNAAQ82eAP0TdaAAgBk6BUzSABtAAGuiJBgDibmAICMXuAHFPGsEhjFxQRkbY0AAaQANpNQAQA2bAeTcaAIgBYkaG0AAaQANooCcaAIi7gSEgFLsDxD1pBBl1STvqgn2xLxpAA0PQAEAMmAHn3WgAIAaIGRlCA2gADaCBnmgAIO4GhoBQ7A4Q96QRHMLIBWVkhA0NoAE0kFYDAHFDYLZ9zB268ILbfPmq23zzw+z38lV/7uD2MZY0a3lJsyH84QCIAWJGhtAAGkADaKAnGgCIGwDiR590m2984Dbf/lX898YH7uCjTwLFQHFBAwBxTxpBRl3SjrpgX+yLBtDAEDQAEK8IxALDb38UB+ECIH8EFAPEAHHYKEoDxA8boIHFNRD60qrH1MHidYDNurXZqpoP40t9DuHxci/LuH1s9shwAYh/5cPGpk888NSmO/vPW+7sO1vuxDOHG6uPjW996G5+8afCb++956fpX3hvv3jt9u/d5dMb0+ti81IYE7+XdTIg6BbfC/0x9XHvvlRHA7TiP/IBCZ4Go7m6TtF44IvN1Q9aT29LfCC9jRfRsZ8zbKD30Fu/dH/x9PfdXcdPuS8f/pq755En3YFX3y2MHkucMA8B4SMnDrmtBw65c/+yVboehp93vLFx1l3+ZN/t3f7QXdjIAXdj43m388lb7tTknMDutdfOTvM79drv3d4EiqdpBAB84bU8/rxycH22XlP48zygBogByKnD46CzHbTP9knReADEw9VDn7Waqmz4QL/06l+gM0B87/nvuXsePe8O/uPP3KE3P3D3X3rTHfrRLwpALHFCfZx778j03GO7+X4Yru6xB1sDvlXxQiBWCBZI3jj9lrsWGTGuSovzi2szhT8DxADvtDHBKRd3yqHYLEXjARCPVy9D0fUi5cQH+qXX8EW6u46fdAev/KwIwAaY/Ut38oJd0GcrBMs29gvDzzr2o8C3993Ot/KR4arwM4FYRpNrplOVPudn6zWFPwPEgXMhwtkixD7DtE+KxgMgHqYW1tWH8YF+6TUOxD9dGIhVzzEYVljWMPO2Mm84nCpRFacKiBWmZaRZ5iDbaRVVaXF+cW2m8GeAGCAu/ePGORd3zr7bLEXjARCPTyd91/Eq5cMH+qXX8pSJS+6e00+5g1d+6qdK3Pfca27j8n8rAnJkyoRqIhUQK9gK3FpYDoFYju11KVc2dSJ7+Q4wblZ/KfwZIAaIAeI10ECKxgMgbraB146dbRq74gNp7LqsXsOX6mT5tXvPX3J3Hz/pvrz1l+6eR7/h4diuTxx7qU7zTwXEmn4Gt/mLdgLAdhWKvRnzjnXFCrtKhabLdjldpvBngHgNYAiHW87hxmS3FI0HQIyuhuQj+EDP9NrQsmuqwUaAeMbLcDEgXmTUlxftmtVfCn8GiNsGYj5RyYh025o7eNCv3T3P2Re9Pgggxt/wt4m/pehAB+EDHbQ3Cqlztz38MIef+hAslyb3sTIQ86Jdo21RCn+e1wey7FqTjQmfqGzUIeY2tk3W3cDTStF49B4G8Df8zfjtWvqAuf/etpc981NdaSKcArEIEPuwAVRn6xTnUy56Wx9D0EyiQR6AuK3K7+E/YRyy2Uc4fbbn2sEA/gYMB2372vlAcP99bp/kC3R+TvHLV93mmx9mv5ev+nOxr9O1cS/hHGGZL6wrSEj+cr1qyoRCdWGOcfChjzbuYcx5pPBngLiNRqOhuVJNf6LSvj2rjlvl4H1zrLCx0i8ErVpOXVzdNnyrptmH+CkaD0mzD/dWKkNP/S2VZkv330abNsA81soHBlg/6Hh9BmiaqOsU/gwQt9BwhG/T9uUTlf4Rjnmskz0SqrcouQrar9sYvF0bO6fhm9qG/86zx1Hlb8kvmh9AfGft78P3FYj76m+pNLuoxpsK34afN1VWSSdFB9pXH2jSbqQFqPZRAyn8GSBuAYjL6y326BOVBohF9NJpL7I0TKxTjJ1r2qFCuFCQXXWEW9NhhHg+GPcVBvrqb6k027Rv1U2vDT+vW5Y64VJ0oH31gTr2IAygO2QNpPBngLgNIH7jg8Li4n34RKU4QjhCLOdKnbZfhiZfb9G+aCBhdaqFbAWkY+fU6ewUDTvFIYfQ7HOXsrj5q++WwdyXdzIaXSrnxll3+ZN8TpeOdmv5bLlj5ZFwAsF5WbJPd+pxuOC6pjGUbYrGo68wEP8CVrefhBWdrKJZiRv+US37w/PeB1TzXs/Gf2Manu+TmV95/76dP4GZ5ed99Yl18oG+1gHlAsKb0kAKfwaIOwPibj9RKaL0HaoZIfYjPsHE/1Ovfegunw7gMIxTY8qE7bwlb5uXQue1T0xe8glNk66G0ZHbKrjQ6/PK7ctj7lUA+nIEiD2ImHI05cxtp5Oi8RgWEHfvb6toNhyNjfmD/ZOpoKs+pOEtVNfxSZtm6AthmdrW9KL5rZMPLGobwgOqQ9NACn8GiNsAYnlz9u1fTX/yNZ6uP1Ep4tdOU0eUdJR0lmOEnWB4LHHDc9kbt/nokg8zGdG1o7J2ukMYJxvxzZesCeHCd9YGcMN7sGXSN4AVnm1YBQe5FgKADTe0/RSNR2+BuKf+trpmcx+K+YOF3ZjGyz6Qpyd6ttrX/YJP+tHm3AdtekPwh3XygSHUB2UEwlfRQAp/BohbAOLwJZ8+fKJShOhHiOxo7wRSbceq4Sw066iTXIt1iuE5Obbx7b4F4hBQLUCEZZVrNh1bJnWyEPg1jC9fBTxPQeCT35e+S6/pDnGbovHoKxD31d9W0axobp4/FODVfwQgAF7z1GUZn8wgPE8z9PO++8U6+UDf64LyAcOraiCFPwPELQCxrKMYzmu0I8al/Tc+cLPWXmziE5UixhAy5Zzt9HSUSUHSXzedauw4dm4WgPrwZrRYjvWXd7jZPEYLzBYONLxu55V7VnmKQJx3/pr2ULcpGo++AnFf/W0VzYruFvGHzAeK+s3jbxSmLMU0rX5gfc62DcXyZFOqYun06dxa+YBpR/tUB5Ql79+wxWq2SOHPAHFbDUcPPxRQDcTZY9Hwsaw4sI9j5tTaTlYdPDwXdqQaTrexzleuTTv1b73lrgUjujPhIni0K2nZcs8qjy2Lj2NeJNLyDnGbovHoLRCLT/fQ31bR7KL+MPWdyfx/H9/8mZ3lA1le5T+hYZzQz/vuF6l8QNLlhw3QQPsamAewTV/n081NArN00sGKE4XRYRkZfvTJ6Qhp6g4mBGKFQZ0yUeoAJ2+sl0aMA1j1HWVwTmDAvuXu83rvLXdqo7yyg71vDxEyfcFM7ZDr8+EiHx3L7mO/8JJeqTwVL9VlUJzPm7RlG9J+KhjotQ165m+ranaq+xr+MA+INa1FfLLUHghgB37eZz0k84HDR9xBftgADbSqgRT+PA+gAeImgVjS6tEnKgX27Dxc2Q/B04bxIGxGmaTzU4i2cWPntAO2+emcRw1vH89qxxp2wnp+FlxImHnlDsujb9PHyiJ5Sblj5dPy9H2bovGQNPt+333ytyY0W9cf6gBx6AOi8Vk+GeatvmJ9v896SOYDgFCrIMSfD/6AiQZS+DNA3DTwkl6jkDS0x7J9BYIUjccggHhk/og/LD/vMJkPAMQAMRpoXQMp/BkgHlmH2VcgW6ZcOgKlo1bLpEGcDCBSNB4A8fJwtowu8YfV7J3MB4Ch1mGIUWJGiVP4M0AMEDc6ortMRx+Lo9MUwikcsbCcmw8KKRoPgHi+3ZvSJv6wuq2T+QBADBCjgdY1kMKfAWKAuJdA3BRIkE4GEikaD4B4dUhDn+3ZMJkPzIGhY8eOuMsXttz7Lx52v309+8m+nJNrjHZiAzSwuAZS+DNADBADxGuggRSNB0DcHswBzqvbOpkPzADi82e33G/+8bD77M34T65JGIBocSDCZuttsxT+DBCvAQzRma7emQ7dhikaD4AYXQ3JL5L5QAUQC+jerABhC8gSBiheb7gD7hev/xT+DBADxIwQr4EGUjQeADFADBC/Eh3dPX78SHRk+Ifn73UnN7/knn7o7sKosYwUS5xZYPTSg/e5Lx7/sv/J/qyws65tnNlx127fcpfPND8yvbF5ye0kSnvWPXFttnZi9klRVynSjJVdzqXo0wDiNYChIXValDUNZKVoPADiNHWFD6SxazIfiIwQy/xgOwqs+6e373S//uGh6DWJU9X5y/lbj93lTmxv+p/szwrb1bU2gairexxLvinqKkWaVfZO4c+DBGIxBD9sgAYW08A8Z1/0OvZfzP7Yq3t7LarxeeGlTmMdtrw0pxBstw9tfil6XsJInFhaeu6Pj395et3u6/U+bNsEoj7c75DLkKKuUqRZZWPxvXn+2fT1fn6pLvKPvMponF/8UQo2G5/NUjQeVTCAfsannzHUaZs+IKtJWBCW/YcOfWn6k6kT4XWJU2Xn//P1O13sVxVez29sPu4u38i+tOm/tnlxy4XQkk2hyMJcu7IznfIwDXfl+vSLpteuPD4t44XdPN293Uv+/DROgukYek9sm2lfpnV1UabQaP3n9Wt1odpR21ddm6Y5qX8bbu/2dXdhM3sKMlM7FXrTvHWbwp/nATRADHxPG0AVIttmGqQ27Zii8QCIh6eDNjXXt7za9IEYECsUhyCsx0mA+OJ1p7Cq9WGhJdvfdzsXM1A5deWW25vMAdZrGn9D0jJQU51emvnJmh/bZtqdaf3e2HGnNrdcBq9Z3ek11cVi12wauRZEP/YPldRjlo8Nvz/Va5XetP5T+DNADPACvGuggRSNB0DcTMekDTzbtPZs0wcqp0wcWm7KRGx0WM7N04yO0FkQKUCIvGA3ASJJq3AteEHOXvNhL+Yjx0WIziFoXvm4nlbzs+wb1qeElZFbgeBMN/mIbu1rRjOqPRld1p/9czU9V/gDlmsnVj57Pyn8GSBeAxiyImK/uwaoS9unaDwA4vXUUpc6XiXvNn2g6qU6mTahI8LhdtZLdcsCsdpLRn71sbcFDQ8tSwCxBaZsWoYd5cuhRvNn27+2wupA6ken1zQLxEWo9vn4VU6y87O0E5Yv1FAKfwaIAeK5owyhEDnuX+M2r05SNB4A8fB0ME8nY77epg9ULbtWBcTzll1bFYilXgWKZaTYgka2P2vKRA63hXgyfaLyUXseZ8x6Gvq9ad3r04PinxxZPi/XxWLX7J+j/fI0iZrasXqL2TqFP48SiPlUJh11zIHW+VyKxqMOEOOL+GJf/K5tH+jDhzlkHmb+aFpH5YprBdsw0Zfq9AUp+zjcvKy3d+O627lhIQgg7ovmZ5VDgXNnN3t6oE8QNE4GwdnLdjolZt41TVPXuLZpSPoyZUJHov3xDO2EaWneuk3hz6MDYmmE+FQmnbA6DdtMCykaj3lAjC/ih33yP3xgvh7tSGCf6o6yzK+7dbNRCn8eFRD34R/5uomS+x1GQ5Wi8ZgFxPjiMHSxTv7btg+obYf0lEReqtKpEFp+tvhyHzWQwp9HA8RVc7ba/lTmvGH+LoSVlcmsGdnBpzVT2yV1+p3UW4OfWE3ReFQBcV98sYs6m5dn6IvhY8p58etcz0b5mnlsvYxfLRMnvK9Zacy6FqZjj9v0AZtvn/ft42v/CDuyrFqfy0/Z1hfWU/jzaIC46q3etj+VuUxjHcYJj1d1+jA9v9akebN41fTrxA/LUCfOImFSp79IWdoOW+feUzQeVUDcF19sux7q5BfW1by1NuukmTJMWN46eS0TJ0x3VhqzroXp2OM2fcDmy/76Qht1n67uU/jzaIC4ct3Hlj+VuUxjHcYJj1d1qjC98HjV9OvET51n6vTr3GNXYerce4rGowqI++KLXdXHrHzDugqPZ8Xt4toy5VsmTnhvs9KYdS1Mxx636QM2X/bTQRG2XV/bpvDn0QBx7MtA3Xwqc/IGb8XnEMNPFmaNez6d4dP33vHLncjjK/8ISz+J6R+f6xufxbeF5S3RT//zE7dzI18mRRoKP/p0Y8edPBS8VWzeFvbhTNr2Ea4u0u3DxOLULJt83ejpoAy2IbNvomZh/8Z/blS/kmPvJf+iTtwW+narTX+o+7bjn+4Hn7UM9aMLn4f3nKLxqALiPvuiaErXZBWt65JDXmMVflBle7XxIvot+aJZgigsg/0qWPhoW30jzFs+jarl/cGji/tRWAa76oDeb2xryxHGsdds+6LlVJ+1x9P9SDs6vaarH5h6szYLy9mmD4R5c7y+4Ebdp6n7FP48aiCWhc+r1n2Ua0k+lenBMX8xIesMyvP5bKNu98V55h5PPoGYhcvX+fMAPIFUSUeBNkzPTpnQNIod7GQJHemsFXolzxvZOpaSdmxNS1/2qrIFQC1hffjgvNyDXyvT5C3hqu5lGj5IR9Mf8tbWm9aTrQ/t/G24qvtN0XgsAsS98MXJElQKwd5fJnMm1b5RP1CfNr5QZfupHmfqN/8DrPUp9RbW4zStyRJXWm6t4+rw+R9gf4812oQ8L4mb/7H2bcWcdw5C29k44TXbHpbKb3xY4+kLXlXxSmlM2g+1kd2m8gFJlx82QAPta2AewDZ9/c+aTnDV9ER0tpHT/crHtDO+DCRxNH64XXYh9LCBlnQV5mRfOh4ZJZGfru0XxikdmxGQaVy/nl/e8fm0fYdiRo914fRJhz6Na16cyDqaLI7aQMvrr03SuLB7y12W0Rp//Li7rOtOLlS2yB+DmfEj9zIzfDl9vachbq0O7H5e15M/LgYkqu5T/GZV3wvjD80XZ9rQ66rCDwL72nQy/8kB1/v11Dcj+jVphb5XmVakbF4DNXwhK2ukHFVx5bx5v8Dea5W2bDtR0mak7NP2xdiiFC+4Jtdj8apsFitrmz4Qy59zaUYKset62jWFP4d9XHg8GCCuepFn1ghxik9lhh2IPuqUkSfbAWbn40BTSiPSqUgjEIaTczpyq9uqcNqI2DLpubzjUfC95HamIHzdXTCdZix+LM9YWX24inuTa3oPup0Vvip9iTPUn70nu+/tYIAhvBa73xSNRxUQ99cXY38gJz4Y0WHuB4vFU/urbnUb1pscF65FyuDjLHreaMPmUTuvHgJxoR0191fV/sh9h782fSDMm+NyfWATbLKKBlL4cwjA4fFggLhqqacqIE71qcwMTsw0BtOZ+ceXk84ma8hrArHvAPI0VUQxEPLpmq+/SNhYuGIa+SPSsIPxnWgwVWJnN5vWkKc9v2xVZQjtpeXyaYvt/L3kI3dV4avSt+kNbd/ek933trFQYPar7jFF41EFxP3yxczHQpuFx6qr4pQJM7Jqpg3YutB44XQGn/5Uv4uVIUxLYbB8PpveED9v8pyWo64f5e2B+L8+yarSltpAbWfjhNds+6L3pfF8+zixs8bTeyvGy/+ghOGqyijn2/SBWeXgGiCIBlbXQAp/DgE4PB4MEIvA+vAxgKyBvuVin0PUDsA/Vg2gVUaj9HGr3Et4nHUI+aNZmXuoeelLKepkEnfW3EQNp1ubdtj5ZdeCztXAgaRh4+s9hGXTjkuu66/Y2RXvzac7mTtp76VufnpvQ95aG9r9zDY5FMhxqJfwvlM0HlVALHn3yRfVP+bZ0OrY+sEi8VT/av86vugBsvBHOeYLGfyq70wh0v/hLoYvl1ee9BTbBCmfvV9bbjutK3xBTu8r3M6KY/OxdvVlsFPIdq+7nQIQV7WjRe3b9O19hGVs2wfC/DleHYKwITZUDaTw5xCAw+NBAbEYSjridf90s3TC2mGqeNiud0OSovGYBcT4YqY3fLE/fteFD4gfHD963L107m/dL555we0997L/yb6ck2u0zf3RCHUxnLpI4c8hAIfHgwNiEfSQPpXZtAP60RIzB7Dp9ElvOA2GrasUjcc8IJb88cUdJ0sF2rpgvxsf6sIHzp981H168SX3+Xdfjf7kmoRBE91oArsP1+4p/DkE4PB4kEC8jiLX6RjhI8l1tAX3XG7kUjQedYB4HesCXyzrrw86aNsHBHR/VwHCFpAlDFDcT830QbeUIa6NFP4cAnB4DBBH3lZGoHGBYpf+2iVF4wEQ97e+8cVy3bTpA8ePfm3myLAFYtmXkWKJE9bbA+e33dl3tt3Zq9vuxDe3S9fD8FXHpXnWOmd98sK2zk0PB1Ts3HBde1vz8HPfdy/59xf0fRC9xrasP2zSrE1S+HMIwOExQAwQL90I0wA02wCsYs8UjQdA3J/6XUUb6xK3TR+Q+cEh9M47ljhhXQgIH3nwiNs6ccSde3c5IM5gOH8xWvK4sBtfQaX8gqdZmeTMjrt8MZv+Y6fmZU9EiumH98ExbUXTGkjhzyEAh8cAMUBcaqSbFjbppW8sUzQeAHH6esM3mrNxmz4gL81ZAH74qwfc2QNH3CP3H3Dff/C0O3PgsD+++vVnp+EkTljf53aPTs899pPFgVin71S9ZF1ekSRfwcMvg1fxPoqAsx0V9mHNFxHD++C4OR1jy8yWKfw5BODwuJdALIbghw3QwGIaCJ171WPsv5j9sVf39lpV82F8qdMYoHz6XPFFOgHia+e/464/84KT/Y+eveQ+ePo77tyBI1MgljhhWo/9JANigeHYLwwfHmejw/kob+l6sIa5BeRsP7bGvH6wKX9Z1I4Yh3lwDAyn0ID4XuiPqY97CcQpjEuaOO2YNZCi8aiCgTHbkXsbbjvRpg+EQPzI/Qen4CtArKPHJ+/L92NArHqLwXCdEeMQVGVk16/VHKz3rGt12ykTkreOMEscHWXOQLkI2bFzWna2w/WZPtddCn+eB9QAMVMmSqMWfXYSyhZvfFM0HgBx3NZosJ92adMHwikTVUD8sAHi2JQJ1dJKQHw7Bq/ZnF8dBc5fqiuG1fyzkeZsffsY/DKPuJ+a1/ob4zaFPwPEAC/AuwYaSNF4AMR0gkPqaNv0gfClOgu+doTYno+9VKf2XRqIgykRkl4GtBaI670Q50ePp19ILYJzDJK17GxpJ1JoIIU/A8RrAEMpxEiaw2rkUjQeAPGwNLDuPtumDzS17JrW2bJALPE9yJpR4rpAvHFxx+lUCp06IS/SxUaDw6kZWm62tBGpNJDCn0cJxHwqEydM5YRDTTdF41EHiPFFfLEvPtO2D/Tpwxx2PWGZHqErRFg4Duspu7bv5xz7ecdmFQmBbE1D4rHKBH4e6if1cQp/Hh0QSyPEpzJxztTOOLT0UzQe84AYX8QP++Qn+EBzerQjwrER4z7VO2Vprt77ZMsU/jwqIO7TP/I+CYeyjLNBWKReUzQes4AYX0Rzi+izjbBt+4De01ifkuic4gu7+27PjB7rfbOlDUipgRT+PBogbmrO1qqfygwfM9nlalKKY1baYZnCz3POihtem/WITcLaRtI+UgvT4bjdxjJF41EFxH31xVV035Ve8afm/KRNH+hKL+TbnF6wZb9tmcKfRwPE4Vu9us7jrG3srd5VP5UZAmO2XE3xjdzQ0UpxIm8Gh3EWOQ7T951sxReI5qUbpmXD8xitvw1IisajCoj76our6N7qPMV+zK/wp2b9qU0fSKER0mxWD9hz2PZM4c+jAeJw3UdZ2qabT2Xmn74Uh4t1dKEjhmHC4zD8osdheuHxIunNiivAYUeFedGiPw1OisajCoiH7IuL+EKTYWN+hT816z9t+kCT2iCtZnWAPcdhzxT+PBogDr8MJEDcyacyg9HdEAplvtV0EfTpmo75uU/fe8ft3M6PdW5WNtKcnd+bLKGjnejO7i336X9+4nZuZAunq8P7vG/suJOHZkN6WKZp/E35RGdeFvlSkeYpy/Fk+9n8sdiLFXaES9Nk201jlKLxqALi3vpi4Juh7nVpKf0il2i15EMXd9y1iX9KOIFW9efCn8EzebjQXy9fuV6Io36k6YjP40/N+0mbPkA713z9YVNsajWQwp9HC8RVXwZK/qlM3+nmEKmdoa1I2S+DZb44ur0WhvXHF6/7kVjtSLUjjsF3CLESv+rRsc1X4UDTlnjFsmSwrPCQxS1ODYmd03TYttu4pWg86gJxt76Y+1Ut3V+8XnhBSKA596F9tzeZaiS+JgCr/uF9L/ijOl3DNfDX6Z9cyasqjm9H8Kcm24lUPiDp8sMGaKB9DcwD2KavD+bTzeFj2qpO2H4ZKMmnMoNRqGxkN++UtSOVzlRf8rEgWoTOrQxCzWhTcRQpNvKbdaI+Te2850B6tEw+z2KHbMt27cb+FAby88XwsVGuJjs40qoP1algIFYH/fLF6j+nUd0bEC37kPHj0M/NsX2aM99fszTjbQD+FNPXsufa9IFly0i8+m0atlpvW6Xw53kAPRggDl/kseDb5acydaTVjzIZyLSwGO8MTedr4tlGIIwn13TeoW7lXCycppN13grRMuo76aBn5rnvrt24VRhJy/IIO3AB9uI5zZdtu41ZisZD0ozVY1990Za1SvcSRn1Ht3Iu9KFZxzbtQp4GmsM04+kVfSfmYzZ99mf7VJs+QF3Mrgvsg31W1UAKfx4NEDe11JNW0rKfyix1bB4sJ5Apj0h11Naen9FRSggQUIYAACAASURBVHmyNIsjsvn5HJz9OUn3xnW3MwHbqnBy3l+rLFM2JUIfCU/Dm7LK42S9bgF/GtaXZced2sxGuvU82/YbwxSNRxUQ99UXre78FIeIL0oYD7RzfKjk58Yv6vqrTcPu+zL4+fsx38afbD0ust+mDyxSLsK23x5i8+HbPIU/jwaIReB9+BiAdobTR6W3805NR4v9dImgw9UXfHR+YXicjTqZx7/TF/Ly9NXJJa6mI+fCzlbDZdfyF+f2gjKF95LPpczy1PtRyLcjaj7tYD6mzZf9dhukFI1HFRBL3fbHF8v+4bVpXhgNdS/X5/lQ6FOlY/+Hd7a/hnFCn8efmvWRtn2ANq7Z+sOe2NNqIIU/jwqIxVjSEa/7p5ulY9WX3ayAUu9nI2vZCFZsxDh1/qRf3WCmaDxmAbHUxZB9sSsfshrGn6r1bO1Ud78LH5CyjfVLdXXtTrhmdYw9M3um8OfRAfG6N0C2E+3CcWRUS0anwxG2LspCnnlDnKLxmAfEQ/XFrn3I6hZ/yjVs7bLMfhc+MOQ/hcvYmDjN6RVbzrZlCn8eJRCvo5Cm0xfMFI11tAP3HG9EUjQedYB4SPWBD8W1M6Q6nFXWtn2gD9OGZtmDa+PW+9jrN4U/A8STl8vGLh7ub70bvxSNx9iAGB8Zt4+06QNNvVj6wPltd/adbXf26rY78c3t6KouY9OtfSqiL22P7R65n6yt8U/jKgbxwncsQpul8GeAGCBei0Y2dKZ1O07ReADE4wbIsflImz4QLj34+XdfdfN+Eie0uYDwkQePuK0TR9y5d8cFxDHgsdOVeA9lvduXmD6sf6TwZ4AYIC41wlZ07I+jUUrReADE49DGuvh4mz4QfpxG1sI/e+CIe+T+A+77D552Zw4c9sdXv/7sFJRjH4o6t3t02j7LUqBjqqsY8LCyCm2KajymD70m2xT+PEggFkPwwwZoYDENzHP2Ra9j/8Xsj726t9eiGp8XXurUdtK6/+lzL01BV0aGBYivnf+Ou/7MC37/o2cvuQ+e/o47d+DINJzE0fi6fewnGRAvuy6+pKNz43UpUF2BKHtcnS8NOD2va2pfyT5PLvF06sIUUiLXfF5muUH9LHmsDG9/Wz7alOctL2LHRoTtiLHahG3/oFk1phrydV76xkFe3xpuqqcz5a/yXruy43YqplNI+uJ78/yz6euD+VIdTtI/J6FO+lMnKRqPKhig3vtT79RFXhdt+kAIxI/cf3AKvvbLqSfvOzA9HwNirb9lgVhBRYFW08tAJF+e087l1Gu6lr3/iM3ki6Pzr+Xrfks8yXd2GUx4D+J8nVHraGhbr5PdS9M/dbp0pWpmCsH+T5N+y0D+GNn9XJN+LjlAfOdM6qcTzhv4oTkM5e2u7tqEAeq5u3rG9tW2b9MHwikTVUD8sAHi2JQJrc+lgdjDRxEyJc0MgIvniwATgqqFloprZnRYR6P9yG9VGXQkWkcHo0AsH47K81N7sK3WeVe2ycA305TfL3wJdL7WwqcBWXrVdZ/Cn+eNKDNCzBzj6T++rhyNfFdv/FI0HpImdbN63WDDdmzYpg+EL9VZ8LUjxPZ87KU61cZwgLgIPlL+GHz787WAWEYQy2mqXdi24zt17axzwHXr6znyhyj25wsgvnP2aHCM1umE++UAdR2FcN3WW5swQF13W9fYP27/Nn2gqWXXtC6XBuLJJ8rrTZkwo3vmUbUdqbP7UjZ7nO3vT+cba9nrT5kojwaHkKRpso1rvGu7ZPV13e3cyP/EqC6KUybKWgvDMWWiBiDXAWI+ldlPZ+naWdc5/zZhwNoZX8QXrR663G/bB/ryYQ4FDZ3GUAST7EWnvQoAlvrK4s+fMuHDBtMmpvOQ/Whw+aUqGSmUcmk4O7Lo05MXs8y81C71Q97z2zL98xPWWfaUoIbWLtoXOXmpbub8YRkxngfEfCpzvmhx7PWzUdswIBrDF9dPZ31uW/CB/uvRjghncFU9h7TPWqNs6bWWwp9jsxLsuUHNIe7LP3KcIb0zYOPFbJyi8ZA0q+oBX1ysfqrsyPnm7Ni2D2jd8ZRksTr0j8p3LzkZPQ5HGtWmbBez6RjtlcKfLfzG9gcDxE3N2Ur1qUz72KkLcdpGJpxP1kV5yHPxBi177BQfMZmnrxSNRxUQ990XV9EefrS4blexdxh3KD4QlpvjbnWD/cdn/xR9WgyC7bnBAHH4Vu+8z2TK9dhbvak+lTkPWFI6LI+hxtcYhHqZp68UjUcVEPfdF0Pb1T3Gj/rtR33ygbqaIly/NUX99Ld+UvRpFn5j+4MB4nDdx759KnNeY53S8XhRob9O3VS9z9NXisajCoj77ovL2hw/6rcf9ckHltUY8fqtMeqnP/WTok+LQbA9NxggDr8M1LdPZU4b64s77trkk5V26oK+bWvfuNU4O7u3nH4GM3tkmL2tGX7a0F6bhvfL7hQfs9uRLhy8fQfXN3H1bW+pA/+Vn8JC5uU3slUPl3Uhe/NGd6iFsF5TNB5VQNwXX5zaq6bPzaqXk4f+pvSBAPxoed+ZZetTm1uTtWuH6wOh/3G8vFawHbaLaSBFn2bhN7Y/WCCu+jJQ15/K3FPokeVkIguOTzvxM1uT5W7ydR2za/FPG9p4Ip78s5nlhc2zsPk6gTGxcS5tIzSGz1zWBeLufFG0v++mPuf/QBT/HHpfMR8ImF0vRZ/Bj1bzkdm2ztu57I9+Vm+2ncv283B+frdZPixsw1J0oFU+EObN8WpawX7YL9RACn+OQbA9NxggDh/TVnXC9stArX4q03S6UrG2YffHZv09XROyFEY69AlQh2nY0WFdb1Le0M3SCDvy8gLoodg4TtsA2Xrx+/pHyUNbsb76+lWfKhjojS8GPieaVlt6/6n0ucz+hXrxaRXrhWWhVvORMfsA7edq2sB+2G+eBgDiGesQhy/yWPDtxacyg8456wwmox4Ggmwna8P4DnwuEBc7bB8n2pGXR43niY/rzTdQOidVt9M6Dp4cKMRZPYSP6+21WF2laDyqgLg3vljyOfkjmI0oZn8gFXyLfxC1PnTr6wU/qlxiL6a3uufUxrr1tjbtoaYzNB/QcrNtvt3EpthUNJCiT7OjwbH9wYwQN7XUkzpbmk9l5o9rLcD4R4eFEcLy40EpVxYn/ohQr9l5yVmcYmfvzwVgrffMtt2GJoPa4X7msgqI++OL2ZQJ9YkCBMuUpYjP5f4h9WL9FT9K0T6M1QdS2Io0222fsXe/7Q0QzxghFvH25WMACqc6dUFenrIALGW1x/qCiX+h7kbeEdsw6pwCz5pu+CJV1uHnL6LoouZ29MXnzecwk4x2aR3V3Wq9az1pPFuPOn3G11s44jlDC5qWblM0HlVALHn2wRfVf+SlVPUZfZFRbR/6nNpLRiTDesGPmu8gtR5CW4/BB1RLfJijed2obdmur21T9GmxUWF7bjAjxOoY0hF/evElV7UOsVyTMBp+yNus0yhPkwjvyYfT0bDIqhNheI7H18ikaDxmAbFoqGtfVCDWVTkW0bU+ordx8KNh+8U6+oDVL/vD1i/1V6y/FP5s4Te2PzggFtGsyz9yP4o1Ad15ziKjWzIKExv5mheX60VHHKI9UjQe84BY7NSlLy4LxBZ8w7rGj4brC237QB+ekoT65Xi4+qXuinWXwp9jEGzPDRKIxyocfbyoj39jy7aN9d65r2JjsKg9UjQedYB40XI2GX5RIFb/stNUmiwPaa2m4VXt16YPNDWP/oHz2+7sO9tOvqB64pvbKz/ZtD6RPWHM58mvat8+xLd/WPXdgT6UizLEfX+WBq1WY/ZL4c8WfmP7APHheEXGKohz2KqvGkjRePQdiPtaF5Srm3aiTR8IV1qpmsJnz0ucUBsCwkcePOK2Thxx595tFojDvIZ0HIMl+2Qn+3M7LtgfUv00UdZYHdt0U/hzDILtOYAYIC410laU7HfTuS9q9xSNB0A8jLpfVCtjDd+mD4RrccvSn2cPHHGP3H/Aff/B0+7MgcP++OrXn52+7xJbF//c7tFp+ysrH61aN/MgY9X024ofuw9eeh1XexSrY6uvFP5s4Te2DxADxCs3wlbE7HfTaKVoPADibuoSH1rO7m36QF8+Xy5ayR5LZ6sP2ZWJLHDodCGdjhdbjUWuTc/7taLzFY2m53UlnCt2NaTHfR8yzS9yLSynnQ4Ylu3tb2fLKWpZ5d2Y2IiwHTHGZ5bzmbp20zpSHfj6LC1tOUMvZ7YyjRhdWa3GypHCn2MQbM/1EojFEPywARpYTAPWsZvYx/6L2R97dW+vJnRv05A6jXXWIRBXfTn15H0HpiPEEieWlpxbfl38DB4VVPwc28nnraeAembLhZ/RljwVcsK5uFm8fD18Ow9Ur+kyej7dyYeG5l/LpzhIPMl3dhlMeD6cU6mdKk01fT7UkK7Uo/WuGizrJavHMJzVaqys4nvWF9vY7yUQx4zDubT/ALHvsO2bovGoggG0MmytjLX+2vSBcMpEFRDbL6rGpkxoXSwNxMFHmDLosAAy2Z+MzFn4zcClvKxn7HwRfkJQLecn91UoixkZLIz8+vORMuhItI4sRoG4/DEdtSfb5tuorD7165+X3I4u9Rqpw5hevK7MqllWH7H6SuHP86AaIGbKROf/PGPOwLnFGrQUjQdAvFgdoNlu7dWmD4Qv1VnwlfnE+jKdPR97qU41kxqINR8ZldOpETHwlXCx8zHA8WENuIaAY49jaVblFaabHxfB2QKahOGX3gY6j1u3vm4A4juTDWXTCacXNQ3H+GzcJgygn/HpZwx12qYPNLXsmtp9aSD2QJpPb7CPoS2Qaj6yVZiZPV0hT9PCbJimPbb7ko89zvb3/TQJW5bZZbAj0eXRYF8uM+Jo02U/TRuV2Vy+tpv/OdG6LU6ZMCPJhSk8ua6sVmP1lcKfGSHmnyP/nNdAAykaD0kz1lBxLk1ng11Xs2vbPtCXD3PI3E6dhmBfVCoAqQlTfKGt+AJbEWqyl6Tsut02TdGrPbb74TV/HEybmM5DnkC93oOWQUal5ZyGU5BXPwnntOp5tqv50Sz76R8YrRMNm/1pqqEXo0OrVU3HblP48yiB+Njxh92zT/6De/U7H7q3Lv+/buelf3cvPXfN/d1Tr7ujx/+KTnwNANA6DvtH/Euo85x90et1gBhfTNf5oOvFbJuiA53nA11/vnydNGJHhDMwy0eQ18kO63KvKfx5Xh84uDnEj53+tnvzB3vuxy/9Pvp76/Jn7vQjF4BioHitNJCi8ZgHA/jiYsC2Lh1ZV/fZhQ/IvXb5+fKubN1Vvv4x++4lJ6PH4ShlV2Ui3zTtYAp/HhUQnzv9LT8aXAXDel5GjIHiNCLF+ftp1xSNxywgxhf7qYN19s+2fWCdbc294/+pNZDCn0cDxNtHT8wcGVYY1q2MFMvj3LDSVv12fDhPKky/i+OsTPmi2HbOV1vlSW2XWPp27pzMNSssKWTefq5jg1j6deLNCpMizar8UjQeVUDcF1+sssUQzmfayH021G8X95BCrynSrLJNmz5QVQbOA4pooBkNpPDn0QDxhSdeKU2R+OsHnnZPn3vFPfbgt92p40+5V5/7sBBG5hmH4lz12/HLNPBhnPA4LOOix2F6/rFSy2/fhmVY9B7mhQ/T9y9UTN5elbg62V+hOAy/aPrzwte5vmgZ6qRZFSZF41EFxH3xxSpb9PF8qIX4cbePgcMyNWHHFGlWlatNH6gqA+ebgSHsiB1T+PNogPiV7/yiALsyEry18aB7+dvZ+Re//b57ePuJQhh50S50rFW/Hb9MAx/GCY/DMi56HKYXHi+a3jLhU+dp01f41beRtbzZm67l5V70+qytTX9WuEWupUizKv8UjUcVEPfFF6ts0cfzoRbCYymz1W8X9xAr06rlSJFmVZna9IGqMnAekEMDzWgghT+PBohlXrBOh9CtALHuKyDbY1mBIhTnYz856s+ttu7jLXf54o67djt75KmjkpKXLhWjy8VkHUL+aPTT995xO5N4GkbiFZctKULdzu4t9+l/fuJ2buRr+Pk4k2+JnzwkS+fkb9yGnZBNW/JUkNTF1n1awRQDH2f3kreVja9L9mgeUjY593RQBklTf2H8pw/9jbtccS+nNrdm2uKyfIY0shB4dg/5WpVaPh9+sqzPrJcwpuEr6tXeg7WhzzdYTkjtO01Tv7ZkwqkdJX6omexeJnV6xS6p9PjUphLG/lI0HlVAPFxfFH3M8SFT/1KP8rRF6lt+1s+tHrQup/Ud1Fl2Pm8DRIfTsBNtZHVeLJ/Nw2puGjfIR/Vg42nZ9Nqs7TRdY4Oqe7bl8WU32rbXpmmOzAdm2ZFrxbYJe2CPZTSQok8bDRBb0NV9AeI3v/+ph+J/+sFn7ujGQwVAlo67qiJWA+J9t1f4bGEOo5qf7Qjsvlyfezz9znu2RqR2SuG6iwq0YXp2ykR2LYeArLPMymvTk/1rN25NO31JQ/IN0/bhpufzhdbDcDE7+HvXexOYnwC3nK+6l2J+k3JL5xuZEmJHjvPyFCFDyxVu1U6xetVrU9D1nf+kLBPYrr5mw2X71g62HHmZtyZ2zx+h+7q6nS+GbuPJforGowqI1f/sdjC+OFN3xq8n62UWfG9if1tPti5VJ6prW2elOMEfUJ/OZq5VTataV3FtlPKZ+Fuol9ix5okP5B+eqvKBmP04B/ihgeY0kKJPGw0QX/nexwXYlc5YOuHzZ152r1+64f7ub664x0++UAgjj3arBLoaEOdgI+krzMm+dIIyQiI/fbmt1EkFnaEd0ZnGjYwiZemY0WOF8gmUTeMacMrSLoKUltdfm6RxYXcy6u2PpWOegFww8uPvq7JsRbt4e8yMH7mXmeFtmYr35PPyQDEJM7HxtRs5tEuYql9YRxKuYCdj09rXTD1X1bGktYxmwvtI0XhUwcDwfTGiO1NXvk5mHFfVZaghe2z3Y+ln50K/K2p8qsclyhbqJXYcllHCTPP0fllRnlnXTFmr7ObvfYl2M7yHNn0gzJvj6rYV22CbZTSQwp9HA8TygpwdkVIgfvFbP3d/e/qyu3DuH5yMEtswsZfqtGKaAuLCqKTpGLLzRTiTx/eSf9jxZB1FsbOJhZNzOnKr26pwct5fM2XSc9NObgqQl9zOFISvuwsSR2E7Ej+WZ3hPmlfVvcl1vQfd+nRr5GdtrvmEcbPy7PtRbx2xs2HD/bD8No/YPUxtGCnv9FoJBiJ1bOIvopmw/CkajyogHrIvit1Ub7qVc+X6r56GFNPDvDTmpe/jWy2Yfbkmv5iuwnyryqZpzNqWy2hGrGeVZ9a1kfrALDtyDQBEA6trIEWfNhogPnL0L90bf/9vBeAN5xBbGK5adk2FuhoQ56OOtgPyj0gLIFkTiH2nkaepZQw7KDnv87sh3xLP0vbnTKejcXWbpRFOmcjBzENBMFViZ/f6dOqExtdHx8V055ehKr4vt3Sk/l7y8lSFz86b/OTRtxm1DePZ8AISYfn1PnRbim86eb1WfHydlXn+NauBcjmW1YyWW7cpGo8qIB6yL4q96viQ1Y+PY3xM6zzU1Pw4Rr8mvTx946eTNqFac/G0qsqmOpm1DeMW2ra55TFlL/nO+HzA2pEPc6wOP9ae7GNP0UCKPm00QCwGeuCB086+4T4LiOUrWikcSzs9eZlMpyhMO63JHEA/rSCAVoEynW4g5QqPs85n/os3GteOemqZdAQ6vG+btk7j0DDZNdO5+s4sP5ZwNr7eQ5indqZqE9kqMMTi+3Qn9rL3Ujc/H848ZpX8tB6ytPMRPh3t1bmRcj386f3E6tWn5+0yqUPzAuOsa5qm1kvMDlo2b1ejmVLcAKDC8qdoPKqAWPIesi9K+cX/rO7m2bt03ejB112NaUTW57P0jL8HmlpIV4E2YjoL9RI71nvEB+rPIebTzeW2NKYtzmGnRTWQok8bBRAf++n/7b6293+5Yz/7v31H/Pr3PimMFIcjw2ceebYEPItWRp/DS8dq4a/PZaVs7TSEKRqPGBD3yRcV4PQPxyJaw4fa0eUidbJq2LZ8QMspMPy7777qPp/zkzASVuOxHZ/2qNPm6zSFP48CiAWG9SfCO3r8r9w3Hn/RXX7u506WVpOfrDkscxtjX6cbk1j96M9kWsaY7ot7Wa1BSdF4xIBY/VC2XfviskCMD62mtb76als+IPd//OjX3KcXX5oLwwrLElbihLbr05dTiy/35tPYwjIvcmx9tLAfeRJZN137VC17srbjZLnOuvHbDJc9rSk+cV02f5neKE+15M+8Pn2dlZa196xwi1xLkWZV/in8eRRAbEelqow39vPaCIRTHsZ+39xfPXhJ0XjEgLhPvrho44wP1dPSUH2uLR8Q+7x07m9rw7BCscQJbdvFl1PDMshxBm45BMvx5YvVkFnX92w4u2/LUHXehtH9rJzFJ6Tzyqpx29guci+LlMfft76fNH0Zvrp+JO0UZUmRZpUdUvjzKIC4ymCcH3cHR/3Wr98UjUcMiKmT+nWCrdq1VZs+8ItnXigA8cNfPeDOHjjiHrn/gPv+g6fdmQOH/fHVrz87DSdxQk108eXUsAxybF/ujV0Pz9UFIxvO7tv0qs7bMLKvf2j7PF2w7r2E9zbv2K6I420RrKcei5+iLCnSjJVdzqXwZ4A48gJVVQVwvt0ODHs3Z+8UjQdA3Fz9oPX0tmzTBz59rjhdQoD42vnvuOvPvOBk/6NnL7kPnv6OO3fgyBSIJU6og7a/nCr5K1jKdAP5CWBmoBN/FK8vgxZfHjUvhNb4oqnM87cwpfs/eDT7+JSWRV901ZFgn6d+EMdPs8hHsUNb+nsLXnZVeNb8Lke+7jjrWphmcWWjbFlCLfvb3y7fyzRtXXJ1qfLl65PrPdsRYz0Xbqd58+VJNw+E9fqf6U5ftnTC6TuO0HE4Hr7N24QB9DJ8vYyxDtv0gRCIH7n/4BR8BYh1msTJ+/L9GBBrPay6DKiuoONHes1ylJr+FI4ETCtGFy0oK0hqfNkW0ghXNgmP9Yuk5nxVfHs+zMcfa1oCkzPen8nSyadTZFBdXPJvCtxm2U6NV30tnwMstpP5u2qrcC7vrHvRfNS2i5Wv+EcgS6t4ztZVbkfz9U0P40V7zCpL9TWbRtk2thzWHnr/MTvbOLqfwp/ncS5AzAhyadRCBcl2OOCTovGQNNHAcDSw7nXVpg+EUyaqgPhhA8SxKRNaZ6sBsYESA6CStgCcjmDq+yc6+hrCnJZFr0+BKJZGmE8w8ulHdoOlCMtwVAFWVWn589UQmJW7eF1Xk7F5e7uY8s+8tmBZ5qe1bPmK8TIgz+td685uw7LItak9Irasdc3arcI23r51NGPSsuXW/RT+PDggnlfgoVw/dOiQu3nzppPtUMq8TuWkfvK1Vode79RlmroUu/7mN79Z6zas6k9h+FKdBV87QmzPx16q084/BRBbQIwBlMxLFXBV8NWyyFZXNKhKI4QtG86mY8PV2Ze41WnlX060eeh+LN4U8gL4qiqLz9+EjaU5u4z5+vd10qpfvhCIJZ/iObWDbu09ZmXJ7Re7r2lZZsHygraxuiuXp2grLbduAeI70zTsXXT4u7u77o9//KOTbRf5k+dsLVE/s+0zJP1Ql2nqUuz661//eq3bsCogbmrZNe38kwCxTAvQlQk85JRHFPVlrY2LO07X87bTAfz0ikgacbgpz0G24ersZ+CWzcWNjWDriLeFeIE7WREjSz+cMpFBo807z6NihNpCn9+P3VcGl2EZ5+ezTPlWmUOcl91C8HxbzS+nplGyQYXuZtlG/cBuAeKRAPETTzzhPv74Yw/EspXjIQHG2Muq9fPjH//Y1xP1kwao2tCR1qX8+cTXmqtHtev29vZa27UKiKXj7sOHOWZBhoKtn75gv4JZeJxtgTHyotwCX1/NgKuYhi1f1b7YUkYndZqFHMfSUlgqXTPziu01nSLi0zOQGx7bcoXX/HEwNWA6B3YCy1JuO9Ju76WUtkmrbvmkDPrHRfZ9mSrmget1H2Zyz3x5sn672Ls5xG10oinz+MpXvuJ+97vfuQcffNADsWzlWM6nzJe064ne1o/YjPqpZ7c+6svWpQAxddlMXWLX3I6zgFigg083M8feQmiqfQ/6OlJfcx3iVGVpK11GiEcwQvyjH/3IyU8AQjpp2dpzfQSLdSqTrYunn36a+hmwz9m6xNdyiFvVn7Frbst5QCxwcPzocf+hDnlpbu+5l/1P9mXOsFxrCyDIZ9xwrvO6ZQRaR6nHXOcA8YA7Z+mEwhEq7aTtiMuqnRXx885qUVtQP8vbblFbpw5PXaapS+xatGsdIB4zlHBv44bsPtcvQDxgIL7rrrtKc+0UiAUOdE6ehEsNC6Rf7NTEHtRP2SZD08m9f/FV98ubt2vV5Sc3fuPDDu0euywvPlL2EYAYIOwzNI65bADxgIH4hRdeKL2NbYFYOjp5a1vCddnprWve1E+5sx+SFja3jrrdX+75l1fm1aWE/e2t/+PDDukeuy7rPLtK+datDQOIAeIxQ2ef7w0gHjAQP//886X1OkMglnU9JVzXHd865k/9DBuIf/XZH9wT5//OQ+68upSw3/ru3wPEC7anMbvKWuq2vVi3NgwgBoj7DI1jLhtAvGADbhvqPu6HQNzHMq5zmaif4UDyV+//rx7MZHmjmGZtXc4LG4vPueFooc26AogB4jFDZ5/vDSAGiKOdfZsdwDrl9fbbb2PvgflcHSBWDVeF1ets50OwjAivs52kU+aHDdBANxpou+1hHeKEQGBHrdquWPKb39n3wUZ3HL/ifn77fffYHXesNXjUrYsqyI35WlXYunkRLl86sktb4CNp2jL5syNTYtb9T0+X2l4lb+qveb8AiAHitQUxXYd4lUZp1bh09os1alWQCxAvZse6uo3ZtW7cpsLhI2nqlk+ep7FrU7qflw7113z9AcQA8doCcd3O/o47nnFv3J58WvT2hjlpjwAAIABJREFU5+6F43c430l//L574+N9tzcZ4S2GK476Zp16/lnTN568w8XCx87NaxjX6TpA3HwnMEs/+Ei79p5VF01e02VApX755Pnw6ljr77PPPqP+GmQ4gLhBY4YNVt3OJIzHcTsNVJ36ueOOE+6Fj/edAKzUyx1Pvu/2Pr7ijhx7zf38dn5erj32zr77+YsnfLjtFz93e+88k8XxQJ2BtE/DTJMIR7+q0kATmSYA4nZ8Q/WGj7Rrb7V7yq39UJTUb/gxlpR5k/bqerL1J/ak/la3qeoSIAaIGSGeaEBgVCDWQ6+O+hp4VaeRbQiy2ciugV4PwcVRYo2fhc2u2XRmpaEjxwLmWk5Nj20/5rqOsR5CIFbt4SPNdcJt64ZPcw+37kQrtv50/rc917aexpQfQAwQA8Q68iswHICsB9aPr7jt4KU3C7LSICiwygim/vYm0yu0wRCYyK9VAXEeRsLaNGzZJC0dtdb013kbgts626LJe7frEHsIxkcG3V6Go4nqN+GoY5MaIq3mAJz6a86WMV0CxADxoBv4mKjrntPOIIfb4vQISSe/VlwFIjxvYTXMX2FZAdbGLewHMB6m48szmbKxHUzDiIVdp3Nal+t0z23ea65TfKRNuzeZF5/mTgtTTdZVLK2+1l/eNhT7yNg99P0cQAwQry0Q23WIK0e/wjnEkykU5/wc4uKUCBm11TnEPr3JyHLYYGTH5uU8s+xaVRrSkFjoZoS42LkBxEV7NNXx6CNZrz/5MxYbIcZHBtGG8mnuND7SlK/NS6ev9Rf2b/Puo8/XAWKAeBCNeRtOJJAZziGWfHWE105hiDUCsXBabnnJbjpdYrI6hYwY60t78ZUqwjnJ2TQJLaemzZY5xKk0EP7RUO3ZOcSSd0z7+Ei/ACz2ae6wfuUPkIRLpSfSXV4Tq9RfpX+yUlJB6wAxQFwQxDo1WH1Yh3id7J3yXsOOPWVe65Q2dl0eYIagE+p32PVbp/500GU6ZY+VkiqZByAGiCvFMYQGfZUy1mlMVkmfuO11NtRlGlv/4Q9/cH/+53++tm3E2H0Yv0njN23o5stf/rL7/PPPC74Ze4ITe1Ij5QvPZ6PI4VPJ4rRAva8sbNWL4fE0dJRawFzLqen1ZQsQA8QFh+qLMNsoB53BcDuDUB/UZZq6/OCDD9xf//Vfr20bEepsbMf4TRq/6UInle/ByHsvrJRUqw0DiAHiWkLpwsFT50lnMJ7OgLpMU5cvvviik19qXyT9NPU3z674TTd2n1cvda7LfG99epOP9rIKTB3bVYUBiAHite3s6AyG2xmEDRp1maYuH374YfeDH/xgbduIUGdjO8Zv0vhNGzoJn95UjhCzCkzt9gsgBohri6UNJ28zj9u3b7vDhw+v7f23aevUedGxD7djT60N0q/WBn5TbZs+60b6rf/xP/7HdIRYy6pzc1kFZrl6BYgB4rUFwm984xvugQceWNv710Z0DFs69uU6gDp1f++997pXX33VyUs8dcITJl1dNG1b/GY4daV1L374i1/8wl28eBF/bJjfAOKGDaqilS2NzTAam7vvvpuGJaEfWJ9ItY+vpfM1OuB0tk3lD3XTxW+GV7cCwgLE/EFtvu4A4oQgQGPTvGDrNvR1w/2X//Jf3G9/+1v/b5sGpv/1VVWv+FraupNHtLdu3cJPEvYXVdpOeR6/Ses3TdedvEgnfshUvzT1BhAnbOBobNKItulGRhoX+cctPxqaYdRZqAF8LX294SfpbRzqOvUxfjOMOhXf+8pXvuKfZN5///080UzEbQBxIsNKQ0ZjM4zGRupKRoflUdR//Md/uH/91391586d843Offfd52QUOXXHRPqraQVfW81+dfWnfvLcc895nzh58qRfp1iXf6qbDuHaqa95dsZv+lEPYT2JP8n637LkoawmIS/QsR54+roCiBMCMV95Si/gsCFZ9VjgV160k0dTkpa8TCT1KB2H/T311FP++o9//OPCeQ3Ddewj+hm7PqSzVs3b7euvv+79Y29vj+tB2yF26oN9BLr+9//+3zPr59NPP3VXr151d911l6/PWPuqf5Jee+01H+a73/1uNM1/+Id/4Pqdd7o69pE+R3xLgFhAmD+c7bAEQJwQiMN1AmONCefaETp2Hq+dpcMQX6OOx1vH1G3zdVvHbx555BE/OikjlLIf1gPTaJqvl9DGHLdnY4A4IRDzlaf2hEyjsb62xs/Wt+7x++Xrvq7fyOiwjBLLaLKFYoFhXrRc3v5ot3+2A4gTAnGdf+A4Rf+cgjoZVp3wJGZY9YV/9aO+FvUbgWIZKRZAlmkSrIXbj3rEn5qrB4A4IRDLvB9pQOSfNKJtTrTYEluqBsS3xMeYY4cmVBNs52thGb8REP7nf/5nd8899/jf3//937MWbkJ+QMfzddy0jQDixIJmEe32Rd20k5BeP+uQUap+1gv+0u96wW/6XT/4T3f1AxAnBmIan+7ETcMybtv3+c/mvX/xVffLm7dH+2Ro7Pc35rZjVb+RucQ/+tGPRqvtMdc99za7TwSIEwOxCJCXD2aLECfFPotoQP5kSqfe1y82bW4ddbu/3HM3v/jTKKFh7Pe3iBaHFLYpv5Fl4/7pn/5plNoeUn1S1ub7TYC4BSAW4QoU8zW05gVMo7BeNh2CH/3qsz+4J87/3WiBeOz3N8Y2pUm/ESD+5je/CRC3xA5j1GNf7wkgblHU+g9dXgKSN3xZdHu9YK6vjUCfyyUvy8lqLeIr4jPiOzI6LL7U13J/9f7/6ss21hHisd9fX3W1SLlS+o0A8YkTJ3rrf4vYibD0wVYDAHGLQKyGDxur2JfQpNFZ15/MUfu3f/s3t7u7665cueIB6OzZs+7IkSNREJK3nx9++GEnn5N988033bVr15x8YUk+w/y//tf/Wls7rqt++nLfAsR9KUuKcoz9/lLYrK00U37pTO6Bz9kDksozY9oCxB0A8ZgElOJeZPRP4FcgWEYDBYoFjgWSb9++7X74wx+6+++/349QyHVpoAV8BYAFhAWIBYwFkAWUBZhTlJM06RRmaWCsI8R6z2O/P71PtkU/l/YWmxRtgj3GYQ+AGCAeVOMmICxALI/OBZplNFmgmAZpHA3SmOpx7MA49vsbkxabvJfHH3+c9hZuGKUGAGKEPUhhv/vuu+5nP/uZ+/d///dBlr/JDoq0+vlnYOzAOPb7w6/66VfUC/WSSgMAMUA8SKB86qmn3BdffOFef/31QZY/lUOTbn86i7ED49jvD18q+9I3vvEN/1QO25Rtg02GbxOAGCBeGChTLcq/SLpf+cpX/NzhJ598cuHy03ANv+GiDqlDNNCuBu6++27/rsa//uu/0ubCDaPUAECMsBcSdqpF+ZdJV6ZLMGWi3U4RCMHeaGA9NSAgLC8vCxijgfXUwNjrHSAGiBdq3FItyr9MurI+rbzxLKtQjN1RuT86IDSABrrQgACwwLC0tTJloosykCfab0MDADFAvFADl2pR/mXTFRjWZdc+++wz98Ybb7iNjY2F7qkNRyMPGnQ0gAaGqAFZ1UdGhoFh9DtE/S5SZoAYIF4KHlO9ULNMugLAAsICxPohDtkCyDTgizSGhEUv66yB++67z33ve99zv/rVr/yylrKk5fHjx5fqH9bZjtz7cNsRgBggXqrBWwZc6zQUTaQbA2QZReY3fBvwR6f7zsY+Qv/2t7/t2w+Bp5h/cX1Y9pF6lDXeBYoFju+9996l+oc6bT1huvdl6qBYBwAxQLxUg9cEuMacMVW6sbw4V2wM+m6P2B8dmUfe93KPqXzy2Fz+lMiPR+jD8p8x6ZB7QXspNAAQA8RLAUUqcE2VbgrnIc1uG2VWGWnX/gLAMgosL1ix0kC7tqetwd5oIL0GAGKAGCBGA0tpoOsGWlcZkU94d12Wdcj/f/7P/+lheB3ulXtMDx/YGBv3TQMAMTAETKCBwWpAvlYon/DuW8M6xvLIlBVGhoGYMWqbe0LXogGAGBgCJtDAYDUgMCxQTIeWrkMTEOZPRzr7ol1siwb6oQGAGBgCJtDAYDVw8uRJP69VoI1OJU2nIksaykt02DeNfbErdkUD/dAAQAwM0dGhgcFqQJaIkhe9ZEunkqZTkfW85Yd909gXu2JXNNAPDQDEwBAdHRoYpAb++3//74W1b+WYjqX5jkVGh2WUGNs2b1tsik3RQH80ABADQ3R0aGBwGnj00UcLMKwfhZDzdDDNdjBiW6akNGtTNIo90UD/NAAQA0MABBoYlAZkpYM//OEPUSCW86yE0GxHI0BM592sTbEn9kQD/dMAQAwM0dmhgUFp4MaNG1EY1lFiuU5n01xnc/PmTexJG4EG0MDoNQAQI/LRixw4ag6OurblpUuXZsKwQrGE67qs5D8e3VGX1CUaGL8GAGKAGHBAA4PRwLPPPlsLiCUcHVgzHRgjxM3YET1iRzTQbw0AxMAQ4IAGBqWBjz76aCYUy3U6nuY6HuYQN2dLdIkt0UB/NQAQA0PAAxoYnAZu374dhWI5T4fTbIcDEDdrT/SJPdFAPzUAEANDAAQaGJwGTpw4EQViOU9n02xnAxA3a0/0iT3RQD81ABADQwAEGhikBuRjEfoSnWz5eESaTgYgTmNXoAi7ooF+aQAgBoYGCUM0JP1qSLqqj88//9xDsWy7KsPY8wWI8bWxa5z7Q+OiAYAYIAYk0MBgNXDvvfe6//iP/3CypVNL06mxykQau6JX7IoG+qUBgBgYAiTQQEkDr7zyiuOHDYaoASCjX5BBfVAfQ9EAQAwMlWBoKOKlnOkaWgGhgwcP8sMGg9MA7UK6dgHbYtsxawAgBogBYjRQ0gBAzJ+Bof4hGnOHzb0BpGggnQYAYmCoBEM4XDqHG4ptAWKAGCCmHRhKe0U50WoTGgCIAWKAGA2UNAAQA8QAMZDRBGSQBjoaigYAYmCoBENDES/lTNfQAsQAMUCczr9ou7AtGuifBgBigBggRgMlDQDEADFA3L8OG4iiTtBAOg0AxMBQCYZwuHQONxTbAsQAMUBMOzCU9opyotUmNAAQA8QAMRooaSAZEG8fc4cuvOA2X77qNt/8MPu9fNWfO7h9bHBLfA0VGsdc7iY6RtIAsNDA+mkAIAaGSjBEQ7B+DUFY50mA+NEn3eYbH7jNt38V/73xgTv46JNAMWsfr6SBUMsc056hATRQRwMAMUAMEKOBkgYaB2KB4bc/ioNwAZA/AooBYoCYNqnUJtUBGsIAvqtoACCm4aHhQQMlDTQKxNvHZo8MF4D4Vz5sbPrEA09turP/vOXOvrPlTjxzeCVo0ikDF97bdze/+NP0t/fe842kq+m3tQ3vQ+5p51sbndzLqdd+77q04yodInEBKjSwvhoAiIGhEgzRIKxvg6B13yQQ+znDBnoPvfVL9xdPf9/ddfyU+/Lhr7l7HnnSHXj13cLoscQJYVJA+MiJQ27rgUPu3L9sla6H4Wcdb2ycdZc/2S+B24XX3nKnNtoDyY1vfej2Plk9TwHia6+dXckms+y1yDWAmPZD2xG2aGFIGgCIAWKAGA2UNNAkEPsX6AwQ33v+e+6eR8+7g//4M3fozQ/c/ZfedId+9IsCEEucEMLOvXdkeu6x3Xw/DFfneOP0W+7a7d+7y6fbg99YuQDi5lfzGFIHTFkBRjTQHw0AxMBQCYZw0P44aFd10SgQBy/S3XX8pDt45WdFADbA7F+6kxfsgrm0CsGyjf3C8LOONzaedzu39+dOK5DRTjulwk5DCK/FpgnMChNOc7Dxbbw9A+46sr3zraz8e7c/dBc2NtysEeIM/vOpIbERaZufnW5RJ669D0n7QmTKhE3f3s+sOlr2Wlc+Q760m2hg2BoAiAFigBgNlDSQHoh/ujAQKyDFYFhhWcPU2SqkVU01kOsKnJKewOHlybzc0rXIFIw6YWIjxD6emUbhw0zAV4H42icfFka3ZwHxqdfysBo/hO/q+5wdV/K1gC1lFaAupV9xP3XqadEwQMmwoYT6o/660gBADAyVYKgrMZJvfxrCRoFY1hw2I8D3nr/k7jn9lDt45ad+qsR9z73mNi7/t0KY2JQJBaOmgFgh99rtbPTUgvGsEeTsWnm6RTaamo3Y1gnj8w/mEMfiKcTK6LTu27JKOnaU1gPpBKDVZnZrIXzWfdo4ul+OW7aDh+TJy4nz7kfTbXJLO9KfdoS6oC6GpAGAGCAGiNFASQNNAnH4Up0svyZQfPfxk+7LW3/p7nn0Gx6OLTTHXqpTaGoSiDXNcGTTg18FVFZds/BXJ4zk7cMFo6d2iobdt0Bsp25IOrNGiOW6jDrbtHRUt6qcapeZcf087OwPQBheR4glfZuv3Q/vwaaxyv6QOmDKCjCigf5oACAGhkowhIP2x0G7qosmgViWUJv5QQ4zejydPzzjq3UpgFgALBvhzUY8Z4Fi1bWmgNhOXwjBUEeIQ5isAmIdAVYA9vdpRqWr7sWHm8yzXjSun/KhI8SSV8Ufi/DemjruymfIl3YTDQxbAwAxQAwQo4GSBhoFYnk5bgAf5lB49COxM1ahsOBsIa4wZaIivg3jodPAqT+uiKf5LAzEkVFcO0e56l7yshRHgOvELUyZmHM/el9NboGSYUMJ9Uf9daUBgBgYKsFQV2Ik3/40hI0DsUJxsOKEnSYho8htfbrZg2DwEQ4Pe2Y004OdOZY4+lJd6drkpTo7t7dOmNgIbTTee9laxcsBcT7PNwPg4otwpfwm9xnCcmXcyJQPnTIhoFtKX2w1uZ8mQVjToh3pTztCXVAXQ9IAQAwQA8RooKSBJEAsULx9zPk5xfKi3ZsfZr+Xr/pzsa/TKeQ0vdXRYDunNfZoX2BOw4TLhQlA6zXZWhjW8s4Lo4Ar8UOIjKWt4etOmZBy2DL46Q/BqLSEqbrPeXG1PFpWuQeJY+8lTL/KVmqzVbdD6oApK8CIBvqjAYAYGCrBEA7aHwftqi6SAXGwtvCq8EP85j9sMXSbduUz5Eu7iQaGrQGAGCAGiNFASQMAMaA5VDAGSoYNJdQf9deVBgBiYKgEQ12JkXz70xACxAAxQNwff6RtpC7QQHoNAMQAMUCMBkoaAIgBYoA4fQcM5GBjNNAfDQDEwFAJhnDQ/jhoV3UBEAPEADHtQFftD/mivS40ABADxAAxGihpACAGiAFioKQLKCFPdNeVBgBiYKgEQ12JkXz70xACxAAxQNwff6RtpC7QQHoNAMQAMUCMBkoaAIgBYoA4fQcM5GBjNNAfDQDEwFAJhnDQ/jhoV3UhQMwPGwxRA135DPnSbqKBYWsAIAaIAWI0UNKAHyE+fMQd5IcNBqYBoGTYUEL9UX9daQAgBoZKMNSVGMm3Pw0hQMyfgaH+GaId6U87Ql1QF0PSAEAMEAPEaKCkAYAYIAaIgZkhwQxlRa+ragAgBoZKMLSqqIg//IYJIAaIAeLh+zFtMXWIBuprACAGiAFiNFDSAEAMEAPE9TtSoANboYHhawAgBoZKMIRjD9+xV63DOkB87NgRd/nClnv/xcPut69nP9mXc3JtqEBFuYddd6tqn/i0f2hgPTUAEAPEADEaKGlgHhCfP7vlfvOPh91nb8Z/ck3CAJfDhssh1h8ws54wQ71T76tqACAGhkowtKqoiD/8hmkWEAvo3qwAYQvIEgYoBojbhmran+G3P9QhddiFBgBigBggRgMlDVQB8fHjR6Ijwz88f687ufkl9/RDdxdGjWWkWOK0DUXk11+bb5zZcddu77ubX/zJ//Zu7LhTm1tuY/OS27Hnb99yl8/kTxk2Ll7P49y+7i5s5tdsfXfRkZInAIcGhq8BgBgYKsEQjj18x161DquAWOYH21Fg3T+9faf79Q8PRa9JHAss4f7Wsa+5J57+pv/Jfnid4/7C7aJ1k8FwEXQv7GZwmwFxfu3UlVtuCsseonMIlnQuX4zralXtE5/2Dw2spwYAYoAYIEYDJQ1UAbG8NKcQbLcPbX4pel7CSJwqcBIAvvLjf3Fvvfu+/8k+UDweALb1vrH5uLt8Y9/tVIBsCMT2WEaHFY5tmrF9YGY9YYZ6p95X1QBADAyVYGhVURF/+A1TFRDLahIWhGX/oUNfmv5k6kR4XeLEwEXOff38s+6t9953Rx/4K/+TfTlXFd6et4/er13ZcTuTR+xTkLqYP5q/duVxn6ZCmT6ur4Izmw/7zQB6Vl/5KG9o12m9TaZJ2ONsf99pPYZx7THtz/DbH+qQOuxCAwAxQAwQo4GSBhYBYoXiEIT1OAUQKyAp0PrH6wUg3p+OKNrH9H6kcfdSLeC2kMX+6lDs62EyX1jsKXUmf0z2CvUWnzIh4e2fGa33WL100ZGSJwCHBoavAYAYGCrBEI49fMdetQ6rgLhyysShdqdMhHBVHk3MwUqg6cJu9qg+g+N6I40x2OLc8mCc2b44QlyuN/OyXcWLc1qHVVC8qvaJT/uHBtZTAwAxQAwQo4GSBqqAuOqlOpk2oSPC4TbFS3WLALGOLFqA0tFJew7YXR5269jOwq+Gt+fsvl6v2vonAhUj/cDMesIM9U69r6oBgBgYKsHQqqIi/vAbpiogrlp2rQqIUy27lsFT/oJWbMqEzjeNjUwKaEkcDVMFXpxvFpKzespHiS0E2/3Q7hsXd6ZLsOkfnKq6o/0ZfvtDHVKHXWgAIAaIAWI0UNJAFRALqPTlwxx2XdrYS3U7u9kcVZmnqiPBNs5exSP5EMY4bhaKbR1I3SjYzgTicI3iitFhqasuOlLyBODQwPA1ABADQ3QgaKCkgVlArFDcp08321HgWWAF3DYLt320J2AyfDChDqnDLjQAEANDJRjqQojk2a8GcB4QCwgdO3bEyfxgedFOVpKQn+zLObnWJizJS3O6Ti1A3K7t26znOnnRlvSrLaE+qI+haAAgBogBYjRQ0kAdIK4DJ6nC6DxSXU/YTn8AiAHioXTAlBNYRAP90QBADAyVYAgH7Y+DdlUXfQfiVKBNusOH6a58hnxpN9HAsDUAEAPEADEaKGkAIB4+GK4r3AMlw4YS6o/660oDADEwVIKhrsRIvv1pCAFigHioQE070p92hLqgLoakAYAYIAaI0UBJAwAxQAwQAzNDghnKil5X1QBADAyVYGhVURF/+A0TQAwQA8TD92PaYuoQDdTXAEAMEAPEaKCkAYAYIAaI63ekQAe2QgPD1wBADAyVYAjHHr5jr1qHADFADBDTDqzajhAfDQ1JAwAxQAwQo4GSBuoAcZ8+zDFUeKPczf/xGFIHTFkBRjTQHw0AxMBQCYZw0P44aFd1MQ+Iz5/dcn36dDNg2TxYDtWmXfkM+dJuooFhawAgBogBYjRQ0sAsIBYYvvnmYffZnJ+EkbBDBSvKPUzIBkqGDSXUH/XXlQYAYmCoBENdiZF8+9MQVgHx8eNHoiPDPzx/rzu5+SX39EN3F0BZRpElDnDZXxtkn7red/lnsG+5y2eG+0eGdqQ/7Qh1QV0MSQMAMUAMEKOBkgaqgPjyha0C8Ooo8entO92vf3goek3izALirWNfc088/U3/k/1ZYYd4LQPO/kJmWL5TV265vRs77tTm7Hrroi7CssbKMKQOmLICjGigPxoAiIGhEgzhoP1x0K7qogqI338xPlXioc0vRWFYgFnixMBFzgkAX/nxv7i33n3f/2R/bFBcB+Kq7NPG+bB84XEbZaibR52ydeUz5Eu7iQaGrQGAGCAGiNFASQNVQPzb18tA/NChLzn9ydQJHTXWrcSpAp6vn3/WvfXe++7oA3/lf7Iv56rC6/kpGF3ccdduZ4/7r115fBrvwq6ZArB7yW1sPu4u39h3OxfzUc+Ni9f9SOjJQ5fczu1b7rJJS8LJSKlOI7Bpb5zJ89y7fd1d2Nxy0/JcuV6Ik50vlkXvoS/badkn0yTC46HZEigZNpRQf9RfVxoAiIGhEgx1JUby7U9DuAgQC/gKECsAh9t0QLw/fbSfQWp5WoKFOw/Au5cK0Czgq9Cq0wQknICwQrCPF4KvwuPF6z7cNI1J+rPi9AWEtRzWRnKuasqEDddnW9KO9KcdoS6oiyFpACAGiAFiNFDSQBUQV06ZmAHEKaZMWDhTsJORTB0BVqgVsN2T0d8zCr5mRHcyTzZMa9axHR3W0eM9PwI9GWVWUN7Mj8P0tLx92WblM6PYE/jX8g3NlkPqgCkrwIgG+qMBgBgYKsEQDtofB+2qLqqAuOqlulkjxCleqgsh006JyKBVwVemSuQjxzL6KSO/uhXoK6eVw2x43aatwBiGCY/D9G28PuzPKp+938zG/bdlVz5DvrSbaGDYGgCIAWKAGA2UNFAFxFXLrlUBcapl1zKI28+nNfh5vRMInswNllUSMqDLIc4f37judgwkh0A46zjMV4F2fpy8DBqnL9uw7LZcfmqEjqR7G+f30VdbAiXDhhLqj/rrSgMAMTBUgqGuxEi+/WkIq4BYYKkPH+ZQiNvZzV98m06XmLxA56dLBPAr5ZepFTLNQcFP09K1d+cem5fqfB5zpkxonhpW8+3LNrxfWy4deR+SLWlH+tOOUBfUxZA0ABADxAAxGihpYBYQCzB1/enmWRBngS62b+cax65zrv5HRPpoyyF1wJQVYEQD/dEAQAwMlWAIB+2Pg3ZVF/OAWKDx2LEjTuYHy0tzspKE/GRfzsm1lGC5LBBnj/n7+dGJlPZKkXZfbdmVz5Av7SYaGLYGAGKAGCBGAyUN1AHiFJBVN81FgVgf/euKE3XzIVz5j03fbQmUDBtKqD/qrysNAMTAUAmGuhIj+fanIew7EAOqZVDFJplNaEf6045QF9TFkDQAEAPEADEaKGkAIAY4hwrYQ+qAKSvAiAb6owGAGBgqwRAO2h8H7aouAGKAGCCmHeiq/SFftNeFBgBigBggRgMlDQDEADFADJR0ASXkie660gBADAyVYKgrMZJvfxpCgBggBoj744+0jdQFGkivAYAYIAaI0UBJAwAxQAwQp++AgRxsjAZGuQe6AAAgAElEQVT6owGAGBgqwRAO2h8H7aouAGKAGCCmHeiq/SFftNeFBgBigBggRgMlDdQB4i4/zDFUWKPc6f9odNGRkicAhwaGrwGAGBgqwRCOPXzHXrUO5wFx159uBizTg+VQbbyq9olP+4cG1lMDADFADBCjgZIGZgGxwPDNNw+7z+b8JIyEHSpYUe5hQjcws54wQ71T76tqACAGhkowtKqoiD/8hqkKiI8fP+J+849lGP7h+Xvdyc0vuacfursAyhJW4jQNl4t+urnp/GPpZWXadze/+JP/rfKZ6EXvL8xbyrBzsds/I2GZ2rIH7c/w2x/qkDrsQgMAMUAMEKOBkgaqgPjyha0C8Ooo8entO92vf3goek3ixABSz20d+5p74ulv+p/s6/lZ20WBUdIK44THs/Krcy1M79SVW27vxo47tTn7/mNph2nFwthzYfiNMzvu2u3r7sKMvEtxNi+5ndu33OUzi5fXlkX3w/TbskcXHSl5AnBoYPgaAIiBoRIM4djDd+xV67AKiN9/sTw6LFD80OaXojAs1ySOQlK4FQC+8uN/cW+9+77/yX4dKA5hK0w3dhzGCY9jcRY5F6YXHq+S1ry4YV7hcSx+GCY8jsVZ5FyYXni8Slqz4q6qfeLT/qGB9dQAQAwQA8RooKSBKiD+7etlIH7o0Jec/mTqhI4a61biVAHM188/695673139IG/8j/Zl3NV4fX8FK4uykhoNk3h2pXHp/Eu7JqpC7uXJqPD+blP33vH7UziyfSCvd1LPm42spqF25uMsGpeO7u33Kf/+YnbubFfmI6wcfG6Hwk+eag4wqrxdMQ1LFN+L4+7yzfysslUBxs329+fllHj2a0NL+d9mSb3JMdh3pqmTu8Ykz2AmfWEGeqdel9VAwAxMFSCoVVFRfzhN0yLALEfIT5UPUKcDoj3p1MSMpAtP+63oGj3PTQGUwRK1y9edwLZCo8K3DHYDCFW0q+aImDz2djMYFjTlnjFsmXX580H1jIq4CrMa3q6LeY9G+BtWF+mgdiD9mf47Q91SB12oQGAGCAGiNFASQNVQFw5ZWIGELc1ZUJGQRUcBVpzOMxAuQR4IRD7ebf5SK2OHMfjZfNz/bXJPOEsXB4/hNJomSrm+mqe127seyhXoK3aangdjQ7/IETzDu8/PB6oPbroSMkTgEMDw9cAQAwMlWAIxx6+Y69ah1VAXPVSnUyZ0CkS4baNl+p0pNWP1BrIzM4vAsTlF9FC2BQoldFfGdXVrR9BDYDSwqt9ya1QJlPWQnif1r67duPWzKkSGics4zrbY1XtE5/2Dw2spwYAYoAYIEYDJQ1UAXHVsmtVQJx22bV89LQAnJM5vbK6gx0pLUNjbMpAnmYVbMp5n+6N627nRj5NI0xf4/vwlWWaN2Viy8//DadU2LR9+gGMF+67Mu/Y/Yf3Mzx7ADPrCTPUO/W+qgYAYmCoBEOrior4w2+YqoBY4KsPH+ZQ+JQX3XRqxHS6xGRerp/yEECrvlymL9GFxxlImmkP0xfyclBUGJW4mk4MSjVcdi1/cW4vKFN2L3mefpTbAK6O9s5awi1Mw675q/HXxR60P8Nvf6hD6rALDQDEADFAjAZKGpgFxAJ4fLo5W7lBIdzC77ru2zncXdqgi46UPAE4NDB8DQDEwFAJhnDs4Tv2qnU4D4gFeI4dO+JkfrC8NCcrSchP9uWcXOsSilLnnU2ZWO6jG6nL1kX6fbLHqtonPu0fGlhPDQDEADFAjAZKGqgDxF2AV9d56vQDOyWh6zJ1mX8f7QHMrCfMUO/U+6oaAIiBoRIMrSoq4g+/YQKIxz3C3SVEp86b9mf47Q91SB12oQGAGCAGiNFASQMAMUCcGlxTpd9FR0qeABwaGL4GAGJgqARDOPbwHXvVOgSIAeJUwJo63VW1T3zaPzSwnhoAiAFigBgNlDQgQMwPGwxRA8DMesIM9U69r6oBgBgYKsHQqqIi/vAbJkaIGSFOPZKbKn3an+G3P9QhddiFBgBigBggRgMlDQDEAHEqYE2dbhcdKXkCcGhg+BoAiIGhEgzh2MN37FXrECAGiFODa6r0V9U+8Wn/0MB6agAgBogBYjRQ0gBADBCnAtbU6QIz6wkz1Dv1vqoGAGJgqARDq4qK+MNvmOoA8fGjx91L5/7W/eKZF9zecy/7n+zLObmWGnxIH2iPaYD2Z/jtD3VIHXahAYAYIAaI0UBJA/OA+PzJR92nF19yn3/31ehPrkmYGLBwDpBNqYEuOlLyBODQwPA1ABADQyUYwrGH79ir1uEsIBbQ/V0FCFtAljBAMfCbEn5jaa+qfeLT/qGB9dQAQAwQA8RooKSBKiA+fvRrM0eGLRDLvowUS5wQXB44v+3OvrPtzl7ddie+uV26HoaPHW9cvO5ufvEn/9u7fd1d2NxaKp1Y2que29i85HZu70/LJ+W8duXxZOXL8rvlLp+Zb4NTV265vd1L7sLuftIyrWrDZeMDM+sJM9Q79b6qBgBiYKgEQ6uKivjDb5iqgFjmB4fQO+9Y4oRwIyB85MEjbuvEEXfu3cWBeOPMjrtmIFiOL1+cD4NhOeYdLwKaNq1l49k0Ftmvm5+3240dd2pzy21sPu4u36gH0YuUpeuwtD/Db3+oQ+qwCw0AxAAxQIwGShqoAmJ5ac4C8MNfPeDOHjjiHrn/gPv+g6fdmQOH/fHVrz87DSdxQkg6t3t0eu6xnywBxBevu70J2IVpN3lcFzTDPJeNF6ZT97hufjI6bEeqZZRdRovr5jOEcF10pOQJwKGB4WsAIAaGSjCEYw/fsVetwyog/vS54ot0AsTXzn/HXX/mBSf7Hz17yX3w9HfcuQNHpkAscUKQeuwnGRALDMd+YfjwOAPA+CP/bOQzn66wMxk5zkaVy+cl7dg1zWM6LWMCjjasTtVQIN3ZveXk3NOHZMpEfPRVpiqEafoy+BHb/JqWuzK8HyXPwl+7slPIL17G8oiwD9fCH4uw/lIer6p94tP+oYH11ABADBADxGigpIG6QPzI/Qen4CtArKPHJ+/L92NArEAUg+G6I8YWfBUe9ZwdBc1gM5vTOw3nYTIDVgXf6ms52Cr46lxdGWGVvDQNzVePFXxlq+nrvdu0qsqtYfN7iJfZzwueALhN18crlLE41zoLWzxn8xziPjCznjBDvVPvq2oAIAaGSjC0qqiIP/yGqQqIwykTVUD8sAHi2JQJBa1VgFjT0NFQAc5svwx4sfMy8loVZ3rNvxxngNiMyirsypSDEoQG8bSssi2+DDgB3GBOdK3wZmTX5q/20PLJNi9j0TYZiOf3Z/Md6j7tz/DbH+qQOuxCAwAxQAwQo4GSBqqAOHypzoKvHSG252Mv1SlsNQHEkpaunBADX7keOz+F3giMTq8FYBtLx6cfhguO9X5tfAuj9ryGDctdCj8TiIvgm5exeJ4RYsCjC/AgT3TXRw0AxMBQCYb6KFTK1G4DWgXETS27ptC3LBBvXNyZLjFmpxvYfc0jh8FsRNgfGwjOoHDWtXwEVcPq1AjNw47Q5vnl8abhzMuAGQRPRogn84dL6VaGL04BKU+ZKM+vtkA9LY/YwYC1nh/ylrai3bYCe2PvsWgAIAaIAWI0UNJAFRALKPXhwxwKpjotwK6UEF7TubsZgGYvoe0FL7zNuiajxTrtQO7fhtXztYHYvDi3d+O62zHLnsXKrYDv8wnDm3WYZ71Up2WUsrPKBPAyFnjhPtBy0xoAiIGhEgw1LTLSG17DNQuIFYr5dPPwvkLnYX4yIhwbMZa6HfqP9mZ47Q11Rp31QQMAMUAMEKOBkgbmAbFA0/Gjx53MD5aX5vaee9n/ZF/OybWhg9VYy6/zrWXk246sj+V++9CxUgYADw0MTwMAMTBUgiEceXiO3HSd1QHisQAU9zH8UWFbh037AunRHqKB9dAAQAwQA8RooKQBgHhckGiBcez7wMt6wAv1TD03rQGAGBgqwVDTIiO94TVcADFAPFRwpr0ZXntDnVFnfdAAQAwQA8RooKQBgBggBoiBlD5ACmVAh21pACAGhkow1Jb4yKe/DZ0AMT9sMEQN0K70t12hbqibPmsAIAaIAWI0UNIAI8SMEDNCDLz0GV4oG/psWgMAMTBUgqGmRUZ6w2u4AGKAGCAent/S1lJnaGB5DQDEADFAjAZKGgCIAWKAePmOFSjBdmhgeBoAiIGhEgzhyMNz5KbrDCAGiAFi2oGm2xXSQ1N91gBADBADxGigpIE6QMyX6oDmPkJznztcygYQooH+agAgBoZKMITD9tdh26qbeUB8/uSj7tOLL7nPv/tq9CfXJEwfgYkyjRvk2/IR8qGdRAPj0gBADBADxGigpIFZQCyg+7sKELaALGGA4nHDZx//XAAp44IU6pP6bEsDADEwVIKhtsRHPv1t6KqA+PjRr80cGbZALPsyUixxQnB64Py2O/vOtjt7ddud+OZ26XoYvqnjjc1Lbuf2LXf5zNZSec6Lf+rKLbe3e8ld2N131648vlQeTd3rkNPZOLPjrlXU07w6oF3pb7tC3VA3fdYAQAwQA8RooKSBKiB+6dzfRqdIhCBsjyVOCGcCwkcePOK2Thxx594dBxB7iLux405tbrmNzcfd5RvLg3doL47zkXaAGKjqM1RRtuHqEyAGhkowhEMP16GbqrsqIP7FMy8UgPjhrx5wZw8ccY/cf8B9/8HT7syBw/746tefnYaTOCHQnds9Oj332E/GAcQyOmxHhTcuXvejxeG9c5zD7TK2AIhpn5pq50gHLVkNAMQAMUCMBkoaqALiT58rvkgnQHzt/Hfc9WdecLL/0bOX3AdPf8edO3BkCsQSJwSfx36SAbHAcOwXhg+PQyiyx9P9K9fdzS/+5H8KqtNrkykT2aP5/Wm4nYv5VIpslLd4zcbP9vc99MZGhO2IcVj+dTlWGxbsKn8UdCTdT40o2lhsY+3sj024a1d2Zk57sR0c+wAPGkADdTUAEANDJRiqKx7CjbehqQvEj9x/cAq+AsQ6VeLkffl+DIgVCGMwXGfEuARMZm6wBVUPUwJgt6+7C34qQz6HWMMprNl5qwpyCtJa3jxfmRKx76Zxff5ZHsWwxXN6bZ224Ui5zK8Wu822f3U9+XnaFfOLxa60S+Ntl6hb6jalBgBigJgOBA2UNFAFxOGUiSogftgAcWzKhAJhOiDO5+/mEKsQll3LALgIrFNY8yOSxWtSZk3r2o3iS3PZ+WL42Kix3vc6ba1t/H5hdLhos6n97R8cqYtJHFsHVS9GpuwwSRsgQwPj1QBADAyVYAiHH6/D163bKiAOX6qz4GtHiO352Et1CoTDBOJ9d+1GtpqE3oeFvlnn9Nq6bXV+tW7l/mf+IQGIaZfpm9FAyxoAiFs2eF0gIRxQ2qUGqoC4qWXXFAiXB+JgyoKfFjEZ+TUw5cHLHGfgasOZaQ9mVHj+lImtwtJqsdFg5hDnL89ltrjudm7kI8JZXVTZnykTXfo/edP/rKMGAGKAmH+haKCkgSogFsDsy4c5ZG6qvjS3t3t9+qKVhd5ZQOyvmZe19oJ5qQpsmkc+71WBOoNyfUHMjn76tFllYvoypf7BkDWaxTb6y0aJs5fqrP1LdWjqmpfqgLV1hDXuOb3uAWJgqARDOF56x+u7jWcBscCMQDGfbs7BzgOwmesaGzFWCGRbtFvT9ui7b1E+2lc00E8NAMQAMUCMBkoamAfEAjHHjx53Mj9YXprbe+5l/5N9OSfXmgadIaTnV0CYfKkuHA0dQvnHUEZgo5+wQb1QL33XAEAMDJVgqO+ipXzpG9Y6QDwGeOIe0o7WdmFf2of07QM2xsZj1ABADBADxGigpAGAeHyg2AWcdpHnGDtq7gkARQPpNQAQA0MlGMLx0jte320MEAPEXcBsE3n23bcoH+0rGuinBgBigBggRgMlDQDEAHETcNpFGsBGP2GDeqFe+q4BgBgYKsFQ30VL+dI3rAAxQNwFzDaRJ+1D+vYBG2PjMWoAIAaIAWI0UNKAADE/bDBEDYyxo+aeAFA0kF4DADEwVIIhHC+942Hj9bTxoUOH3M2bN51s0cB6aoB6p97RQD81ABADxHTMaAANtKSB3d1d9/nnnzvZ0in2s1OkXqgXNLCeGgCIW+oIcbD1dDDqnXpXDTzxxBPu448/dn/+53/ut3Ks19iiEzSABtBAtxoAiAFiOmU0gAYSa+ArX/mK+93vfucefPBB94Mf/MBv5VjO0wl22wlif+yPBtCAaAAgTtwR4mg4GhpAAz/60Y+c/EQLf/zjH/3WnkMjaAQNoAE00K0GAGKAmBEqNIAGEmpARoXtaLACsR01piPstiPE/tgfDaABgDhhR4iD4WBoYL01cNddd5XmCysQizZ0XrGEQyvrrRXqn/pHA91qACAGiOmI0QAaSKSBF154obSihAVi6QBlxQkJR2fYbWeI/bE/GlhvDQDEiTpCHGu9HYv6p/5FA88//3xpzeEQiGVNYgnXpmbuOH7F/fz2++6xO+5oNd8275G88EE0gAYW0QBADBDTIaIBNNCiBmSViUUa6RRhAWJAIYWuSBNdDVkDAHGLHeGQhULZaejQQLsauOOOZ9wbt/fdzS/+5PZuf+5eOH6H8yD78fvujY/33d5khLcYrjjqm4Fvloak88aTd7hY+Ng56rvd+sbe2BsNdKsBgBgg7ny0ikag20YA+7dr/zojxHfcccK98PG+B1ipnzuefN/tfXzFHTn2mvv57fy8XHvsnX338xdPeD/efvFzt/fOM34/g9wMpH0aZppEOEJclQbaaFcb2Bt7o4HuNAAQA8QAMRpAAy1qIJxDLDAqEOuhV0d9DbzaDjIE2RL0+lHl4iixxs/CZtdsOrPSyK5lAK7l1PTYdtdxY3tsjwaa1wBA3GJHiICbFzA2xaZD04AFYg/BAsMByHpg/fiK2w5eerMgK/etwCrTIfSn0yvULgKy+bUqIM7DSFibhi2bpCXTLjRttvgfGkADY9EAQAwQ07mhATTQogYUiHO4LU6PkM4lv1aEz/C8hdWwU1JYVoC1cQv7AYyH6fjyTKZsbPuw+TSMWFjOAUhoAA0MUQMAcYsd4RAFQplp2NBAsxpQIBa7Vo4Qh3OIJ1Mozvk5xMUpETJqq3OIda6xjCxb6PV5+TTMy3lm2bWqNHw8A8yMEDerBXwLe6KB/mgAIAaIGR1EA2igRQ1YIJbOUCAznEOcg2hklQkDslXhtJOVl+ym0yUmq1NkK01ko9LxlSryEWA7yqzl1LTZ9qcjpy6oCzSwugYA4hY7QgS7umCxITYcugbqrDIx9Huk/PgpGkADQ9MAQAwQMzqIBtAAGkADaAANoIG11gBAjAOstQMM7R8s5R3+qAsjxMOvQ/yQOkQD49MAQAwQA8RoAA20qIFwDjEd6/g6VuqUOkUDw9MAQNxiR4iDDM9BqDPqrGkNAMRoqmlNkR6aQgOrawAgBogZHUQDaKBFDQDEq3dcdP7YEA2ggaY1ABC32BE2XXmkR4OABoanAYB4eHWGn1FnaGD8GgCIAWJGB9EAGmhRAwDx+DtW4Ik6RgPD0wBA3GJHiIMMz0GoM+qsaQ2wygSaalpTpIem0MDqGgCIAWJGB9EAGkADaAANoAE0sNYaAIhxgLV2AP5Vr/6vGhsuZkNGiBezF/rCXmgADbShAYAYIAaI0QAaaFEDzCGmc2+jcycPdIYGFtMAQNxiR4g4FxMn9sJeY9QAQIyux6hr7gldD10DADFAzOggGkADLWoAIAYchg4OlB8Nj1EDAHGLHeEYBcQ90TCigcU0ABAvZi/0hb3QABpoQwMAMUDM6CAaQAMtagAgpnNvo3MnD3SGBhbTAEDcYkeIOBcTJ/bCXmPUAKtMoOsx6pp7QtdD1wBADBAzOogG0AAaQANoAA2ggbXWAECMA6y1Awz9Hy3lH96oDCPEw6sz/Iw6QwPj1wBADBADxGgADbSoAeYQj79jBZ6oYzQwPA0AxC12hDjI8ByEOqPOmtYAQIymmtYU6aEpNLC6BgBigJjRQTSABlrUAEC8esdF548N0QAaaFoDAHGLHWHTlUd6NAhoYHgaAIiHV2f4GXWGBsavAYAYIGZ0EA2ggRY1ABCPv2MFnqhjNDA8DQDELXaEOMjwHIQ6o86a1gCrTKCppjVFemgKDayuAYAYIGZ0EA2gATSABtAAGkADa60BgBgHWGsH4F/16v+qseFiNmSEeDF7oS/shQbQQBsaAIgBYoAYDaCBFjXAHGI69zY6d/JAZ2hgMQ0AxC12hIhzMXFiL+w1Rg0AxOh6jLrmntD10DUAEAPEjA6iATTQogYAYsBh6OBA+dHwGDUAELfYEY5RQNwTDSMaWEwDAPFi9kJf2AsNoIE2NAAQA8SMDqIBNNCiBgBiOvc2OnfyQGdoYDENAMQtdoSIczFxYi/sNUYNsMoEuh6jrrkndD10DQDEADGjg2hgaQ288sorjh82aEMDQ+9sKT/AiAb6rQGAGBhaGoZw7n47dxv1IyB08OBBftgguQba0DN50KahgfXVAEAMEAPEaGBpDQDE/Blo6w8RoLK+oELdU/dtaAAgBoaWhqE2BEoe/W4IAWKAGCDut4/ShlI/aKCeBgBigBggRgNLawAgBogB4nqdLVCCndBAvzUAEANDS8MQzt1v526jfgBigBggph1oo60hD3SWWgMAMUAMEKOBpTUAEAPEADGgkhpUSB+NtaEBgBgYWhqG2hAoefS7IVwViM++s+UOHwMq24LKIedDW9DvtoD6oX6GrgGAGCAGiNHA0hqoBcTbx9yhCy+4zZevus03P8x+L1/15y7851H31M1t98A3NpMv2zVkGKTsB5fW6NA7acoPaKKBdjQAEANDdDRoYGkNzAXiR590m2984Dbf/lX0J0Csv9P/tOU2txktBn7jGgAK2oEC7Iyd11UDADEwtDQMravTcN95hzETiAWG3/4oCsIKyArDun38F0cYKeYjH1EN4He532ELbIEGmtcAQAwQA8RoYGkNVALx9rGZI8MxID5z9WhpPvEDT226s/+85WSu8YlnDkdBaZER1Qvv7bubX/yp8Nv51sbK6S5SBg176rXfu733nq+dt4QPy753+/fu8uluyq/3MWsr9r722tna9zgrLQCgeQDAptgUDeQaAIiBoaVhCEfKHWldbVEFxH7OsJkmceitX7q/ePr77q7jp9yXD3/N3fPIk+7Aq+/66RLf+P8edH/1szf8nOIQiASEj5w45LYeOOTO/cvWymDVJKCFZV30eBkgXgSgFy1PivBN2ntdfYz7pp1FA+1oACAGiAFiNLC0BqqA2L9AZ4D43vPfc/c8et4d/MefuUNvfuDuv/SmO/SjX7hzv33abf0/17JpFS9fLQHvuffyKRSP7eb7y8Jbk4C2bBk0HkAcnyus9gm3QEE7UICdsfO6agAgBoaWhqF1dRruO+8wKoE4eJHuruMn3cErP5s5n1hevgshSCFYtrFfGH7e8Swg3jj9lrt2O59SsffJW+7URnE6QjhtQadb1IkreeuUB0n7QmTKhE0/nA4xC6D9tdsfuguT8m5snHWXP9mfTsmYV77MLs/7OFpGuTcbb8+kL3ZWWxbKHNhMw9h6KYRfYMoHfpf7HbbAFmigeQ0AxAAxQIwGltbAYkD804WBWEEqBsMKyxqmzjYGaBrv1GsfTufjhkApYUrQefotd3ky/3heXMnXAvbGtz70cGynQPj0DVBKGAuh/nrFnGMtr87XDdOqVT4DpxJfwFjLrOnb8so9SRjNsyqMXp/acMY9al3EtgBA8wCATbEpGsg1ABADQ0vDEI6UO9K62qISiGXN4cKUiUvuntNPuYNXfuqnStz33Gtu4/J/K4SRaRYxEJJzTQKxjoB64AtGPW3+Hkgn8Lax8bzbub3vdETYhovtl+OWX37zkDwB3Cz9YhgFTM1TIbVQfguXfoRbRomlrMW0wjLa8sk1WxY5jt3vvDg+ni9Dnrekq0Bc5x7DctrjdfUx7pt2Fg20owGAGCAGiNHA0hqoAuLwpTpZfu3e85fc3cdPui9v/aW759FveDi20CxxLADZ/SaBWAHNpq/7IXROR0iD0VoNb7eVcaegWp5+oSOuApsWdO2+BWINb/O1+zpqGwtXVT6Jb8FVjqPwKjYwAB7GicWzYerco72XcB8oaAcKsDN2XlcNAMTA0NIwtK5Ow33nHUYVEB+suezaFIhl/vD2sc6AWEdELfDZEVG/XzGavGxcAVQF11npKxja8Hou3Cr0WuifVz5Jw4KrHKcCYjsFJCz7vGP8Lvc7bIEt0EDzGgCIAWKAGA0srYFKIJaPS9T4MEcGxB/5sPOAqInrIfhpmtnLY/lLaXLeA6hOmQimAmg82S4bV8oyBeIZ6Wte84B4Wo4grel584KgvTdJP7RLXSDW8msZQ7C36WblyKdTaJy6WwCgeQDAptgUDeQaAIiBoaVhCEfKHWldbTETiBWKgxUnpqPCMsdYRoYffbJyZLguLNUNZwHNxglhLTsuvgjnAdaMEksYeamudlwz3UDA0c9hNi/JldKXlSLey1e6mAXEOt9YR4Yt8NYtn8YVu9QFYrkHndKhI9E2ndDe8+7R1km4v64+xn3TzqKBdjQAEAPEADEaWFoDc4FYoHj7mP/ohl+b+M0P3ab8Xr6afYhjxjSJEIiaOA4BzaYpEKlzd/3UiWDOrISV+NMw5sW1eXEVWKdx33s+G4E2QBymL2EtXNo8NB3ZCpB60LTAPXkJUOPbuLF7C+1SF4ivvVZcqi0cMQ7TnXePtj7CfaCgHSjAzth5XTUAEANDS8PQujoN9513GLWAWKCY3+hsEIPdlPWM3+V+hy2wBRpoXgMAMUAMEKOBpTUAEK8v7APEzXfIQA42RQPdaQAgBoaWhiEctzvH7YvtAWKAOOWosE27L5qnHLR7aGCcGgCIAWKAGA0srQGAeH2B2MJqG/tAyDghhHqlXvuiAZ7jrOEAABBTSURBVIAYGFoahvoiYsrRXYMKEAPEbcCw5IGfd+fn2B7br4MGAGKAmI4GDSytAYAYIAaIgaV1gCXucfw6B4iBoaVhiAZi/A3EvDoGiAFigJh2YF47wXU0MgQNAMQAMUCMBpbWAEAMEAPEwM4QYIcyotN5GgCIgaGlYWieuLg+/gZIgJgfNmhDA7Qn429PqGPquEsNAMQAMUCMBpbWgB8hPnzEHeSHDRJroMuOkrwBNTQwfg0AxMDQ0jBEAzH+BmJeHQPE/Blo68/QPC1ynfYIDaCBVTQAEAPEADEaWFoDADFADBADIatACHHRT180ABADQ0vDUF9ETDm6a1ABYoAYIO7O/2j7sD0aaE4DADFADBCjgaU1ABADxABxcx0ycIMt0UB3GgCIgaGlYQjH7c5x+2L7OkB8/Ohx99K5v3W/eOYFt/fcy/4n+3JOrrUFVOQzbHjvi+YpB+0eGhinBgBigBggRgNLa2AeEJ8/+aj79OJL7vPvvhr9yTUJA6wOG1bbqD8gZJwQQr1Sr33RAEAMDC0NQ30RMeXorkGdBcQCur+rAGELyBIGKAaI50E1ft6dn2N7bL8OGgCIAWKAGA0srYEqID5+9GszR4YtEMu+jBRLnBCKHji/7c6+s+3OXt12J765Xboehg+PNzYvuZ3b++7mF3+a/q5deXzhdMJ0q46z/G65y2e2KvOIlWnnYnX4/7+98+2N27YD8LdqA7tzfTG8NvMSB53jIAUGOH+GwskWo6jRYmvdDR1wb5oic9DNabxsQ70hl20d/Mr7BN7X4vAj7ydRPEmWafmkiM+Lg/5RJCU+5D36mTpXldXW/iZ11rLW947NZH/H3Ns/NZd5H7U8f5nCFzLXiHjCQHcMIMTIULQM0XG767h9ufdVQizzg0PpPWtbzvEFSNZFhEdrI7N8bWQ2n8YKcb2ghmVeZLuJXDZJc5E6nPfcpvVZ2Bibg6OxWV9aNgtLd8zu0fzuq1xTX5inHox7MDBMBhBihJgvGhiIZqBKiOWlOV+Ar7+1aG4tjszNK4vm47UPzMbiu3b7yYcPsnRyTihzm/sr2b7bzxDi8P60sd1UiCU67EeFF7YPbbS4jTo0yQMJGaaE0K60a18YQIiRoWgZ6gvE1KO7AbVKiF89LL5IJ0J8sPXIHN5/bGT95YMd893dR2ZzcZQJsZwTitHtZ06IRYbLPmH6cLtO9uTP/jqVQqYB6Lku+pkf0+kMleklcjqdlnGwNzbjkzxyaqOq02OTk0Nzz0ZXZRpHnkbK1TJVOK1sTqOxcrys7OzatvPypa4irnpdWX526six2fXSzhybTvMor/NsRNiPGOu9u8wl/by7fs69596nwABCjBAjxDAQzUBTIb555Z1MfEWINXp84+18vUyIVbDKZLhJxNhJYy63IooquJp3JpYbOhWgfn5sMb2bo6x52jm2U9n100lZIrkioWGdiqIs0ix5OnnWOurSz1Pzmeg0hu1DK8KZ6EoEtyDhpyZLayXeSflsnrmsF+tcrJM7r7hP63kZyxS+kLlGxBMGumMAIUaGomWIjttdx+3Lva8S4nDKRJUQX/eEuGzKhIrVxYQ4FzzNT5YiexpJnajEWlEsl7zK9F4ktyCXXuQ4K2d/ZyrE9XVSwdb6lpatUV+N7NZs+/XSPCXqLOX4x/zo8Gydi/dl3vOI+8I89WDcg4FhMoAQI8QIMQxEM1AlxOFLdb74+hFif3/ZS3Uqb20LsRM/J3i+2Pn7tWxZ+vtn0tcKcVEibV6BuBbKmUq6L8SVZQf5+GIbljN7TKZAVAlxVZ2L+12exX3+tbS9joQMU0JoV9q1LwwgxMhQtAz1BWLq0d2AWiXEbf3smkpV60Is0wl0qkFh+oATRZ12oOVLhLY8/VlTJmanX4RympVhBVcEszhlor7sPNIc5utvu/W8LkXJlvJcPmG6vG7MIWac6W6c4d5z7+fBAEKMECPEMBDNQJUQi0j14R9z+FKocidLfYlNpgVMjg7N2PsJMZVCnTLgphU4US5N7029qHupzp6bTZkozmv+0xe/shFbFXE7F1mF3f7EmUvv1zW8trptPTbez1+40yi0HtPfTnaynNdPXzjkVyaQknlICWXAWVcMIMTIULQMdQUt5fZnwKwTYpVi/nVz9/+FLpRe/+Gg6boV5YKk59HppnlcJB39vj/9nragLYbIAEKMECPEMBDNwFlCLAK0urJqZH6wvDQ3efiZ/ci67JNjF5Ekzm0m220IsdxrG7me/qc6jRzPqw2G+AXMNSGWMNAfBhBiZChahujI/enIXbVFEyGelzBRTrUctyXEXd7jrhinXMY5GEiDAYQYIUaIYSCaAYS4WkK7lMchlo2UpCEltDPt3BUDCDEyFC1DXUFLuf0ZMBFihHhe8k2/70+/py1oiyEygBAjxAgxDEQzgBAjxAgxcjREOeKa0uMaIUaGomWIASO9ASNscxFiPtyDeTAQssc24w8MwECbDCDECDFCDAPRDBAhJkJMhBgpaVNKyAueumIAIUaGomWoK2gptz8DJkKMECPE/emPjI20BQzEM4AQI8QIMQxEM4AQI8QIcfwXMPLCvYOB/jCAECND0TJER+5PR+6qLRBihBghZhzoavyhXNhrkwGEGCFGiGEgmoEmQsx/qkOa25DmNr/4yAuRggEYCBlAiJGhaBkKYWI7vQHmLCHeuvEz82r7U/PDL39d+pFjkqYNYSKPYYs340t64wttTpvPkwGEGCFGiGEgmoE6IRbR/XeFCPuCLGmQ4mHLbBsPK/P8YqQsRAwG0mMAIUaGomWIASO9ASNs8yohXl35cW1k2BdiWZdIsZwTitN7W1fNra+vmltPrpprv7g6czxMfxnbCxtjc3BybHY3lhuVv753bCb7Ozbtwvahef3f/9nP5OTQ3Fs6O4/zlld2zQtLO2Z8cmom03prPbQO9/ZPzcHenUbXU5Z/7L66a3N1rr7PIXtsM/7AAAy0yQBCjBAjxDAQzUCVEH+6+fPSKRKhCPvbck4oWiLCo7WRWb42MptPuxHisE5121b4jsZmfWnZOPnLJVi2d7eXzVniV5d/02OujLxsOc/ft7B0x+weVctn03LaTHfWfWnzi4+8ECkYgIGQAYQYGYqWoRAmttMbYKqE+Pn9xwUhvv7Worm1ODI3ryyaj9c+MBuL79rtJx8+yNLJOaFgbe6vZPtuP+u/EEt0WCOvEpWdTOXYv66zxM9PG7vuy6/mEe6z9ZtGsjVNl8uz7gvjS3rjC21Om8+TAYQYIUaIYSCagSohfvWw+CKdCPHB1iNzeP+xkfWXD3bMd3cfmc3FUSbEck4oZLefOSEWGS77hOnD7UyytmXaw6mdujDeXjYirjqVQQVWzpWpBLo/m/Zgpx+4aGqW314+FULPD6OuLm1xaoLu88vQPMf7x0amNNz9kUx3OLs8qa+LQrs6H+yNg/OqI8TZuSXCHt7Dsm13radG7qUe9x8A/HrJtWo6vVadfuKn8+uvefrLeX4xUhYiBgPpMYAQI0PRMsSAkd6AEbZ5UyG+eeWdTHxFiHWqxI238/UyIVYhKpPhJhFjFVCN1Opc2kxiJYpbMrfXF7fZ9dPCHGE936ULJVSmJuQiLtfj55dv5+LsH3frdeXlUmrnLhdEOqyLiHa+r6y+er+bLMMIszxMiPhqnTMJ9uZgl12bpvPrX1Z+yB7bjD8wAANtMoAQI8QIMQxEM1AlxDL94Z+f/M785fn3dlklxNc9IS6bMqFidDEhzufK+kImec9sF16CC6K0Gyp75fm5vHLh1LrbcqwU+sJYnkdYp5n6+dFqydOL8Pppy+oS7gsj2n59m6z7+dn1irnTkldRlqf3tab+ZeW3+cVHXogUDMBAyABCjAxFy1AIE9vpDTBVQvybrY/My7+9Ni9eHdvl5upPsqiwHyH2hbjspToVo3kIsfvzvRNaXxad+M3KsdRt9li5EEtaGwHd3ymcE+YRbvv5zxyrEUp3XrEu4b5wW/I/70euSaLturR1tPJfLBshTm9s4PuANn/TGECIEWKEGAaiGSgT4vd+um7+8OLIHP7jP+bo6z/apcixRIx1qkS4rPrZNRW0uQix9xKck+NZCa4V1OCXGxa2x9lPtemcW5HHujysUPpRYG+9/NgFpkwEQq33+jxLe5+ODs34KBdgd315vYoPGuH86DwdUyYQqDdNoKjvsJhFiJGhaBliMBjWYBDTnmVC/NU339rI8Jef/97+Yw6RYokUy/SJUIRl+zL/Mcf55DOf7zuxknc+IRaRLERKrczOvqQn6fTlPXlxr66OdcckH50TLS+u+S+lufNySbVpbX3yfeEcYElz3o+Kvr6AqOc7CXbXrr+FnNfB3Ve77U1R8euv+fjLGD45hzEKBmCgKQMIMUKMEMNANANlQiwR4qcvvjfP//6D+fKLr2yE+M9/fW3+9clvZ4R4aP+62UVM3e8Q+zI3j/XZSGwuv1K+L8n+lJB51K2NMpp+qZEOAYIBGIhhACFGhqJlKAY4zhnWQFUmxCI/KsUSGRY5/nzrIyMvzU0efmY/si5zhldXVs8dlWxDri4zD/un/w5+31eiztmvaUyj0xqd1Uiy/iKGTdtBHS9y3xk7hjV20J60Z98YQIgRYoQYBqIZqBJilWKZPvH+2o3BSe9FxK6tc3W6Qvabxt5PqrVVRp/y6duXJ/VB6GBgWAwgxMhQtAwxGAxrMIhpzzoh7pNMUZfzzw/u2z2L4ZNzGKNgAAaaMoAQI8QIMQxEM4AQv/mi2TfxrapP0y810iFAMAADMQwgxMhQtAzFAMc5wxqoEGKEuEpg297P2DGssYP2pD37xgBCjBAjxDAQzQBCjBC3Lb5V+fXty5P6IHQwMCwGEGJkKFqGGAyGNRjEtKcIMR/uwTwYiOGTcxijYAAGmjKAECPECDEMwAAMwAAMwAAMJM0AQkwHSLoDNH1yJB1RBhiAARiAARgYLgMIMUKMEMMADMAADMAADMBA0gwgxHSApDsAT/vDfdqnbWlbGIABGICBpgwgxAgxQgwDMAADMAADMAADSTOAENMBku4ATZ8cSUeUAQZgAAZgAAaGywBCjBAjxDAAAzAAAzAAAzCQNAMIMR0g6Q7A0/5wn/ZpW9oWBmAABmCgKQMIMUKMEMMADMAADMAADMBA0gwgxHSApDtA0ydH0hFlgAEYgAEYgIHhMoAQI8QIMQzAAAzAAAzAAAwkzQBCTAdIugPwtD/cp33alraFARiAARhoygBCjBAjxDAAAzAAAzAAAzCQNAMIMR0g6Q7Q9MmRdEQZYAAGYAAGYGC4DCDECDFCDAMwAAMwAAMwAANJM4AQ0wGS7gA87Q/3aZ+2pW1hAAZgAAaaMoAQI8QIMQzAAAzAAAzAAAwkzQBCTAdIugM0fXIkHVEGGIABGIABGBguAwgxQowQwwAMwAAMwAAMwEDSDCDEdICkOwBP+8N92qdtaVsYgAEYgIGmDCDECDFCDAMwAAMwAAMwAANJM4AQ0wGS7gBNnxxJR5QBBmAABmAABobLAEKMECPEMAADMAADMAADMJA0AwgxHSDpDsDT/nCf9mlb2hYGYAAGYKApA/8HAR2h1H2SbLkAAAAASUVORK5CYII=;" vertex="1" parent="WVzldCEjprewXI6cb8Rf-1">
          <mxGeometry x="660" y="40" width="708" height="513" as="geometry" />
        </mxCell>
        <mxCell id="SVJxbusdd9f13FjdAsas-13" value="&lt;p style=&quot;margin: 0px ; margin-top: 4px ; text-align: center&quot;&gt;&lt;b&gt;Payment&lt;/b&gt;&lt;/p&gt;&lt;hr size=&quot;1&quot;&gt;&lt;p style=&quot;margin: 0px ; margin-left: 4px&quot;&gt;+ moneyReceived: double&lt;br&gt;&lt;/p&gt;&lt;hr size=&quot;1&quot;&gt;&lt;p style=&quot;margin: 0px ; margin-left: 4px&quot;&gt;+ Payment()&lt;/p&gt;&lt;p style=&quot;margin: 0px ; margin-left: 4px&quot;&gt;+ pay();&lt;br&gt;&lt;/p&gt;&lt;p style=&quot;margin: 0px ; margin-left: 4px&quot;&gt;+ isPaymentDone(): boolean&lt;/p&gt;" style="verticalAlign=top;align=left;overflow=fill;fontSize=12;fontFamily=Helvetica;html=1;" vertex="1" parent="WVzldCEjprewXI6cb8Rf-1">
          <mxGeometry x="280" y="180" width="190" height="110" as="geometry" />
        </mxCell>
        <mxCell id="SVJxbusdd9f13FjdAsas-14" value="&lt;p style=&quot;margin: 0px ; margin-top: 4px ; text-align: center&quot;&gt;&lt;b&gt;GPS&lt;/b&gt;&lt;/p&gt;&lt;hr size=&quot;1&quot;&gt;&lt;p style=&quot;margin: 0px ; margin-left: 4px&quot;&gt;+ signal: boolean&lt;br&gt;&lt;/p&gt;&lt;hr size=&quot;1&quot;&gt;&lt;p style=&quot;margin: 0px ; margin-left: 4px&quot;&gt;+ GPS()&lt;/p&gt;&lt;p style=&quot;margin: 0px ; margin-left: 4px&quot;&gt;+ connect();&lt;br&gt;&lt;/p&gt;&lt;p style=&quot;margin: 0px ; margin-left: 4px&quot;&gt;+ disconnect();&lt;br&gt;&lt;/p&gt;&lt;p style=&quot;margin: 0px ; margin-left: 4px&quot;&gt;+ hasSatelliteConnection(): boolean&lt;/p&gt;" style="verticalAlign=top;align=left;overflow=fill;fontSize=12;fontFamily=Helvetica;html=1;" vertex="1" parent="WVzldCEjprewXI6cb8Rf-1">
          <mxGeometry x="490" y="180" width="200" height="120" as="geometry" />
        </mxCell>
      </root>
    </mxGraphModel>
  </diagram>
  <diagram id="-y4bMN8L5vvnDfHo_PZ2" name="Flyweight">
    <mxGraphModel dx="1332" dy="542" grid="1" gridSize="10" guides="1" tooltips="1" connect="1" arrows="1" fold="1" page="1" pageScale="1" pageWidth="850" pageHeight="1100" math="0" shadow="0">
      <root>
        <mxCell id="1H7wMCmETWgs-aTet4WA-0" />
        <mxCell id="1H7wMCmETWgs-aTet4WA-1" parent="1H7wMCmETWgs-aTet4WA-0" />
      </root>
    </mxGraphModel>
  </diagram>
  <diagram id="ZnBGQMrgDgKub9_4WISc" name="Proxy">
    <mxGraphModel dx="1332" dy="542" grid="1" gridSize="10" guides="1" tooltips="1" connect="1" arrows="1" fold="1" page="1" pageScale="1" pageWidth="850" pageHeight="1100" math="0" shadow="0">
      <root>
        <mxCell id="xBOZ_alZytD7x1oqdgro-0" />
        <mxCell id="xBOZ_alZytD7x1oqdgro-1" parent="xBOZ_alZytD7x1oqdgro-0" />
      </root>
    </mxGraphModel>
  </diagram>
</mxfile>
